/* XPM */
static char *eat1639223855[] = {
/* columns rows colors chars-per-pixel */
"30 30 68 1 ",
"  c #FF6C07",
". c #FF7007",
"X c #FF740A",
"o c #E97319",
"O c #FF7414",
"+ c #FD7A15",
"@ c #F4741B",
"# c #FD761D",
"$ c #F77F1E",
"% c #FE7C1C",
"& c #EE7A27",
"* c #F57625",
"= c #F97724",
"- c #F77F21",
"; c #FD7C23",
": c #FA762B",
"> c #F37E2D",
", c #FE7D2A",
"< c #FB7E33",
"1 c #FE801C",
"2 c #FE8224",
"3 c #F7832A",
"4 c #FD822C",
"5 c #FF8A2E",
"6 c #ED8232",
"7 c #F48332",
"8 c #FB8434",
"9 c #FB8A34",
"0 c #F78638",
"q c #FC853A",
"w c #FB8B3D",
"e c #ED8F45",
"r c #FE9244",
"t c #FC9C56",
"y c #F49B59",
"u c #FCA05D",
"i c #F0A264",
"p c #FFA267",
"a c #FFAA6A",
"s c #F5AC76",
"d c #FDB585",
"f c #FAB886",
"g c #FFCB95",
"h c #F7C799",
"j c #F7C5A0",
"k c #F5CEAD",
"l c #FECEAA",
"z c #F4DBB3",
"x c #FFDCB8",
"c c #FFD7C1",
"v c #FFD9C4",
"b c #FCDECA",
"n c #F6DFD1",
"m c #F9DFD0",
"M c #FFE0C4",
"N c #FDE5C9",
"B c #F5E4DD",
"V c #FCE8DD",
"C c #FFF0DE",
"Z c #FFF2E5",
"A c #FFF7EE",
"S c #000000",
"D c #000000",
"F c #000000",
"G c #000000",
"H c #000000",
"J c #000000",
"K c #000000",
/* pixels */
"KKKKKKKKKHGKKKKKKHHHKKKHKKKKKK",
"KKKKKKKKKKKKKJJKKKKKKKJKKKKKKK",
"KKKKKKKKKKKKKKHHJJJKKKKKKKKKKK",
"KKKKKKKKHKKKKKKKGKKKKKHHKKKKKK",
"KKKKKKKKHGJJHKKKSHKKKKKJKKKKKK",
"KKKKKKKKKKKKKKKJJJKKHGKJKKKKKK",
"KKKKKKKKKKJKHHHKFHKJKHKKKKKKKK",
"KKKKKKKKJKHvfyrrslZKJKKKKKKKKK",
"GKKKKGFKJKsXO=%%OO9NGHKGKKKKKK",
"KKKKKKKJFyO2393%29;+mJHKKKKKKK",
"KKGKKJKHp++7;47234#;=vKKKKKKKK",
"KKKKKJHk 4022%=21;4<OrHJKKKKKK",
"KGKKKKSi+q;;4;2;+7+78ObGKKKKKK",
"KJKKHKS9;22%;,432>17+ojKKKKKKK",
"KJHKHKV#2;,,23*,24>+5%sKKKKKKK",
"HGKKKKB+4;23,;22;2<q;OaKKKKKKK",
"KKFKHKK8-22%%3322q+2<@gKKKKKKK",
"KKGJKGKy;,4,,8*%%<241:nGKKKKKK",
"KKKKKHKl q=%4=27=4+6;rHJKKKKKK",
"HKKKKHKAu;27;221204%:xJHKKKKKK",
"KJKKKHKKFeX44;;4%=+*zKFHKKKKKK",
"KKKKKGJJHKs O*;;$-wcDHKJKKKKKK",
"GKKKHKKKKGKbdtrwahCKFGKKKKKKKK",
"GKKKHJKHHKJKKKJHKKJFGKFKKKKKKK",
"KKKKKKKKKKKKKKKKKKKKKKKKKKKKKK",
"KKKKKKKKKKKKKKKKKKKKKKKKKKKKKK",
"KKKKKKKKKKKKKKKKKKKKKKKKKKKKKK",
"KKKKKKKKKKKKKKKKKKKKKKKKKKKKKK",
"KKKKKKKKKKKKKKKKKKKKKKKKKKKKKK",
"KKKKKKKKKKKKKKKKKKKKKKKKKKKKKK"
};
