/* XPM */
static char *ghost181639223854[] = {
/* columns rows colors chars-per-pixel */
"30 29 235 2 ",
"   c None",
".  c #671C7D",
"X  c #BE0B0B",
"o  c #CE0807",
"O  c #C90808",
"+  c #CB0809",
"@  c #C80A08",
"#  c #CC0909",
"$  c #CD0A08",
"%  c #D20706",
"&  c #D40707",
"*  c #D50707",
"=  c #D60706",
"-  c #D60707",
";  c #DA0604",
":  c #DC0706",
">  c #DC0707",
",  c #DE0607",
"<  c #DE0707",
"1  c #DF0707",
"2  c #D00906",
"3  c #D00807",
"4  c #DB0807",
"5  c #D00808",
"6  c #D10808",
"7  c #D10809",
"8  c #D0090A",
"9  c #D2090A",
"0  c #D60808",
"q  c #D60908",
"w  c #D5090A",
"e  c #E10001",
"r  c #E50202",
"t  c #E10505",
"y  c #E30505",
"u  c #E30506",
"i  c #E00707",
"p  c #E10707",
"a  c #E20606",
"s  c #E30606",
"d  c #E20607",
"f  c #E30707",
"g  c #E50404",
"h  c #E70505",
"j  c #E40606",
"k  c #E60606",
"l  c #EF0304",
"z  c #EA0404",
"x  c #EA0405",
"c  c #EC0404",
"v  c #ED0504",
"b  c #EC0505",
"n  c #ED0505",
"m  c #EE0405",
"M  c #F10001",
"N  c #F10303",
"B  c #F20302",
"V  c #F20303",
"C  c #F30303",
"Z  c #F70000",
"A  c #F50202",
"S  c #F40203",
"D  c #F60202",
"F  c #F70202",
"G  c #F60203",
"H  c #F70303",
"J  c #F30402",
"K  c #F40403",
"L  c #F00304",
"P  c #F10304",
"I  c #F20304",
"U  c #F30304",
"Y  c #F50204",
"T  c #F40304",
"R  c #F20404",
"E  c #F30404",
"W  c #F80000",
"Q  c #F90000",
"!  c #F90001",
"~  c #F90101",
"^  c #FA0000",
"/  c #FB0000",
"(  c #FA0001",
")  c #FB0001",
"_  c #FA0101",
"`  c #FB0101",
"'  c #F90201",
"]  c #F80102",
"[  c #F90102",
"{  c #FB0002",
"}  c #FA0102",
"|  c #FB0102",
" . c #F80202",
".. c #F90202",
"X. c #F90203",
"o. c #FA0202",
"O. c #FC0000",
"+. c #FD0000",
"@. c #FC0101",
"#. c #FC0002",
"$. c #FC0102",
"%. c #F50D0E",
"&. c #E3061B",
"*. c #F51010",
"=. c #F41211",
"-. c #F51112",
";. c #F51213",
":. c #F31413",
">. c #F41414",
",. c #F51717",
"<. c #F51718",
"1. c #F31818",
"2. c #F31E1E",
"3. c #D90723",
"4. c #C42A28",
"5. c #EF2D2D",
"6. c #EE2F2E",
"7. c #F02C2B",
"8. c #F02C2D",
"9. c #F02D2D",
"0. c #F02D2E",
"q. c #F02E2E",
"w. c #F13839",
"e. c #F03A3A",
"r. c #F13A3A",
"t. c #F03A3B",
"y. c #F13A3B",
"u. c #F03B3B",
"i. c #F23B3D",
"p. c #F03E3E",
"a. c #F43D3E",
"s. c #B90F45",
"d. c #B61046",
"f. c #A90F52",
"g. c #A51056",
"h. c #A0135E",
"j. c #D82F44",
"k. c #ED4342",
"l. c #EE4242",
"z. c #EC4545",
"x. c #EE4444",
"c. c #EE4545",
"v. c #F14141",
"b. c #F24141",
"n. c #F24C4C",
"m. c #EF5453",
"M. c #F05051",
"N. c #F15656",
"B. c #F35B57",
"V. c #F15A59",
"C. c #E67776",
"Z. c #EE7878",
"A. c #F17A75",
"S. c #1F2DE3",
"D. c #182EE7",
"F. c #162EEC",
"G. c #182FEC",
"H. c #082EF3",
"J. c #072FF9",
"K. c #0B31F0",
"L. c #0A31F2",
"P. c #0C32F1",
"I. c #0E33F0",
"U. c #0B31F7",
"Y. c #0932F7",
"T. c #0B32F6",
"R. c #0C31F5",
"E. c #0F31F5",
"W. c #0932FC",
"Q. c #0932FD",
"!. c #A05095",
"~. c #A065A8",
"^. c #EF8484",
"/. c #EF8B8B",
"(. c #F08D8B",
"). c #F09697",
"_. c #EFA2A1",
"`. c #8396EF",
"'. c #8597EE",
"]. c #8397F0",
"[. c #9AAAEE",
"{. c #9BAAEF",
"}. c #9BACF2",
"|. c #9CACF0",
" X c #9CACF2",
".X c #A0A4E6",
"XX c #A0AFF1",
"oX c #A0AFF2",
"OX c #A1B0F0",
"+X c #A7B5F3",
"@X c #A9B9F4",
"#X c #F8DEDE",
"$X c #F9DEDE",
"%X c #CCD4F2",
"&X c #D3DBF5",
"*X c #D8DEF6",
"=X c #DCE4F7",
"-X c #F9E3E2",
";X c #F9E5E4",
":X c #F9E5E5",
">X c #F9E6E6",
",X c #F9E7E7",
"<X c #FAE7E6",
"1X c #FAE8E7",
"2X c #F9E8E8",
"3X c #F8E9E8",
"4X c #FBE8E8",
"5X c #F9EBEA",
"6X c #FCEDEA",
"7X c #F9EEED",
"8X c #FAEFEF",
"9X c #FDF1ED",
"0X c #FCF2EF",
"qX c #FCF1F0",
"wX c #FCF5F1",
"eX c #FDF5F1",
"rX c #FCF4F4",
"tX c #FCF4F5",
"yX c #FCF9F7",
"uX c #FDF9F7",
"iX c #FBF8F8",
"pX c #FFFCF8",
"aX c #FFFDF8",
"sX c #FCFCFB",
"dX c #FDFCFC",
"fX c #FDFEFC",
"gX c #FDFEFD",
"hX c #FDFFFD",
"jX c #FFFFFC",
"kX c #FFFFFD",
"lX c #FCFFFF",
"zX c #FDFFFF",
"xX c #FEFFFE",
"cX c #FFFFFE",
"vX c #FEFFFF",
/* pixels */
"                      @ # 7 7 7 % o                         ",
"                      i o.o.o.D o.D +                       ",
"                4 4 i M o.o.o.o.o.o.g , , 7                 ",
"              0 o.$.$.o.o.o.o.o.o.o.o.o.o.J                 ",
"            r M o.o.o.o.o.o.o.o.o.o.o.o.$.D z 0             ",
"          4.0.0.5.%.o.$.o.o.o.o.-.0.5.8.-.o.$.c             ",
"        e C.3X3X#Xw.$.o.o.o.o.o.m.-X<X<XN.o.o.o.b *         ",
"        z._.lXlXuXZ.i.%.o.o.:.p.(.lXlXsX/.v.-.o.$.k         ",
"        eXaXlXlXsXiX$X7.$.o.l.6XsXlXsXlXuX6Xl.o.o.i         ",
"        [.|.{.*XlXlX<X0.$.o.j..X|.[.%XsXlXeXz.o.$.k         ",
"        I.U.P.XXlXlX<X0.o.$.s.D.U.H.'.lXlXrXv.o.o.i         ",
"      . U.W.R.XXlXlX<X7.o.$.s.F.Q.J.'.sXlXrXz.$.o.l 2       ",
"    J h.F.E.I.OXlXiX-X0.o.$.s.S.R.L.'.lXdX7Xl.o.o.o.o.i     ",
"    M 3.g.~.@X=XuX^.n.%.o.o.&.f.!.+X&XlX).m.,.o.o.o.o.k     ",
"    E $.o.A.eXqX<Xp.o.o.o.o.$.$.B.9X0X7XV.o.o.o.o.o.o.k     ",
"    M o.o.2.u.w.w.-.o.o.o.o.o.o.1.w.w.w.,.o.o.o.$.o.$.i     ",
"    M $.o.o.o.o.o.o.o.o.o.o.o.o.o.o.$.o.o.o.o.o.o.o.$.i     ",
"    M o.o.o.o.o.o.o.o.o.o.o.o.o.o.o.o.o.o.o.o.o.o.o.o.k     ",
"    E o.o.o.o.o.o.o.o.o.o.o.o.o.o.o.o.o.o.o.o.o.o.o.$.i     ",
"    E o.o.o.o.o.o.o.o.o.o.o.o.o.o.o.o.o.o.o.o.o.o.o.$.k     ",
"    M o.o.o.o.o.D o.o.o.o.o.o.o.o.o.o.o.o.o.o.o.o.o.o.k     ",
"    U o.o.o.o.o.o.o.o.o.o.o.o.o.o.o.o.o.o.o.o.o.o.o.$.i     ",
"    M o.o.o.o.$.D ; * l o.o.o.o.o.o.i % g o.o.o.o.o.o.k     ",
"    c D o.o.o.o.b     , D o.o.o.D M @   2 M o.o.o.o.D ,     ",
"      * D $.D *         # U o.o.i           k o.o.x O       ",
"        b Y b             i D U 7           w D D >         ",
"                                                            ",
"                                                            ",
"                                                            "
};
