/* XPM */
static char *ghost161639223855[] = {
/* columns rows colors chars-per-pixel */
"30 27 205 2 ",
"   c None",
".  c #C60606",
"X  c #CD0405",
"o  c #C70B0B",
"O  c #CE0909",
"+  c #D40605",
"@  c #D50605",
"#  c #D60605",
"$  c #D70605",
"%  c #D40606",
"&  c #D50606",
"*  c #D40706",
"=  c #D60606",
"-  c #D70707",
";  c #D90605",
":  c #DE0605",
">  c #DD0506",
",  c #DE0506",
"<  c #DC0707",
"1  c #DF0607",
"2  c #D20807",
"3  c #D30807",
"4  c #DC0608",
"5  c #D20808",
"6  c #D20908",
"7  c #D50908",
"8  c #D90808",
"9  c #D60813",
"0  c #E10302",
"q  c #E10303",
"w  c #E10404",
"e  c #E30506",
"r  c #E00606",
"t  c #E20606",
"y  c #E30606",
"u  c #E20706",
"i  c #E40505",
"p  c #E50505",
"a  c #E60405",
"s  c #E70406",
"d  c #E60506",
"f  c #E70506",
"g  c #E50606",
"h  c #E70606",
"j  c #EA0001",
"k  c #EA0101",
"l  c #EA0202",
"z  c #E80505",
"x  c #E90505",
"c  c #EB0404",
"v  c #EB0505",
"b  c #E80506",
"n  c #E90506",
"m  c #ED0404",
"M  c #EC0405",
"N  c #EC0506",
"B  c #E10709",
"V  c #EA040A",
"C  c #F10303",
"Z  c #F20303",
"A  c #F70000",
"S  c #F40203",
"D  c #F50303",
"F  c #F70202",
"G  c #F60302",
"H  c #F60303",
"J  c #F60403",
"K  c #F00304",
"L  c #F30304",
"P  c #F60304",
"I  c #F00404",
"U  c #F20404",
"Y  c #F00707",
"T  c #F40404",
"R  c #F60506",
"E  c #F80000",
"W  c #F90000",
"Q  c #F90001",
"!  c #F90101",
"~  c #FA0000",
"^  c #FB0000",
"/  c #FA0001",
"(  c #FB0001",
")  c #FA0101",
"_  c #FB0101",
"`  c #F80201",
"'  c #FA0201",
"]  c #F90102",
"[  c #FB0002",
"{  c #FA0102",
"}  c #FB0102",
"|  c #F80202",
" . c #F90202",
".. c #F80203",
"X. c #F90203",
"o. c #F90404",
"O. c #F50909",
"+. c #F30C0C",
"@. c #F50C0C",
"#. c #E10416",
"$. c #ED1E1F",
"%. c #F11111",
"&. c #F21010",
"*. c #F31010",
"=. c #F21011",
"-. c #F31818",
";. c #C50A33",
":. c #F22423",
">. c #EB3736",
",. c #F33131",
"<. c #F03232",
"1. c #F13332",
"2. c #F33B3C",
"3. c #DE4342",
"4. c #F04545",
"5. c #F25352",
"6. c #F35454",
"7. c #F35655",
"8. c #E06565",
"9. c #ED6968",
"0. c #F16664",
"q. c #F26667",
"w. c #F27272",
"e. c #F37272",
"r. c #F17C7B",
"t. c #F37D7C",
"y. c #F27E7C",
"u. c #F37E7D",
"i. c #0F2ACA",
"p. c #3727C3",
"a. c #212CDB",
"s. c #343EDF",
"d. c #0C32EC",
"f. c #1D36EE",
"g. c #0832F3",
"h. c #0B32F3",
"j. c #0C31F0",
"k. c #0D33F2",
"l. c #0A32F7",
"z. c #0631FD",
"x. c #0930FA",
"c. c #0931FD",
"v. c #1236F1",
"b. c #1034F4",
"n. c #1036F5",
"m. c #2245EE",
"M. c #3958EC",
"N. c #4D65E2",
"B. c #DB7D8E",
"V. c #C1759A",
"C. c #6D81E0",
"Z. c #7A8FEB",
"A. c #F08B8A",
"S. c #ED9191",
"D. c #F5A4A3",
"F. c #F2A3A5",
"G. c #F5A4A4",
"H. c #F6A6A5",
"J. c #F5A6A6",
"K. c #F2AFB0",
"L. c #F3BCBB",
"P. c #A1AFF2",
"I. c #B6C1F3",
"U. c #B7C2F3",
"Y. c #B7C2F4",
"T. c #B7C3F5",
"R. c #BCC7F3",
"E. c #F3C3C2",
"W. c #F4C6C6",
"Q. c #F5C7C6",
"!. c #F6CAC7",
"~. c #F5C9C9",
"^. c #F5D0D0",
"/. c #F7D4D5",
"(. c #F6DCDB",
"). c #C3CCF2",
"_. c #CEDDFA",
"`. c #D6DCF4",
"'. c #EAEAE5",
"]. c #F9EBEA",
"[. c #FBECEB",
"{. c #FAEFEE",
"}. c #FAF0EF",
"|. c #E1E6F8",
" X c #E8F3FF",
".X c #EFF5FD",
"XX c #FBF0F1",
"oX c #FAFBF7",
"OX c #FDF8F7",
"+X c #F7FDFF",
"@X c #FBF9F9",
"#X c #FBFAF9",
"$X c #FBFCF9",
"%X c #FCFEFC",
"&X c #FCFEFD",
"*X c #FFFFFC",
"=X c #FEFFFD",
"-X c #FFFFFD",
";X c #FCFFFE",
":X c #FDFFFF",
">X c #FEFEFE",
",X c #FEFFFE",
"<X c #FFFFFE",
"1X c #FEFFFF",
"2X c white",
/* pixels */
"                        e } } } } } l                       ",
"                        9 } } } A } V                       ",
"                  d.k.a.;.} } A } } #.p.g.k.i.              ",
"                C.l.c.f.V.0.O.} } 5.B.s.z.x.N.'.            ",
"              oXP.v.n.m._.!.%.} } J. XM.v.k.Z.$X            ",
"          . 3.}.|.U.T.R..XW.+.} S D.+X).T.U.`.@X8.X         ",
"          0 <.].,X,X,X,X,XW.%.} ..J.,X,X,X,X,X@X6.l         ",
"          0 <.}.,X,X,X,X,X~.&.} S J.,X,X,X,X,X,X6.l         ",
"          : :.F.^.,X,XOXE.A.+.} A w.L.XX,X,X(.K.2.l         ",
"          e } C 9.,X,X[.>.T } } } T $./.,X,XS.M o.x         ",
"        O M } } <.r.r.w.-.} } } A } +.q.u.u.4.A _ U 6       ",
"      6 A } A } } A A A } } A } } } } A A A } } } } } e     ",
"      ; A } } } } A } } A } A } } } A } } } } } } A } a     ",
"      $ A } } } } } } A } } } } } A } } A A } A } } } a     ",
"      $ A } } A } A } } } } A } } } } } } } } } } } } g     ",
"      $ A } } } } } } A } A } } } A } A } } } } } } } g     ",
"      $ } } } } } A } A } } } } } A A } } } } } } } A g     ",
"      2 A } } A } } } } A } A } } } } } } A } A } } } g     ",
"      2 A } } } } A } } } A } } } } } } } } } } } } } g     ",
"      $ } } A } } } A } } } } } } A } A } A } } } } } g     ",
"      $ A } Z x M } } A } L x x x m A } A } M x Z } } g     ",
"      $ | } g     J } } } g       1 } } } A 6   1 } } i     ",
"      $ J 1 o     7 c } } e       1 } } L 8       1 S g     ",
"      * x           $ J A B       ; A A 1           g e     ",
"                                    6                       ",
"                                                            ",
"                                                            "
};
