/* XPM */
static char *ghost131639223855[] = {
/* columns rows colors chars-per-pixel */
"30 28 248 2 ",
"   c None",
".  c #CD0707",
"X  c #C40D0D",
"o  c #C80808",
"O  c #CB0A0A",
"+  c #CE0B0B",
"@  c #D30706",
"#  c #DC0607",
"$  c #DF0606",
"%  c #DF0607",
"&  c #D50806",
"*  c #DF0807",
"=  c #D50708",
"-  c #DD0708",
";  c #DE0708",
":  c #DE0609",
">  c #D2090A",
",  c #D3090A",
"<  c #D00A0A",
"1  c #D10A0A",
"2  c #D00B0A",
"3  c #D50908",
"4  c #D40909",
"5  c #D50909",
"6  c #D60909",
"7  c #D4090A",
"8  c #D5090A",
"9  c #D6090A",
"0  c #D90808",
"q  c #DB0908",
"w  c #D8080A",
"e  c #E00706",
"r  c #E30606",
"t  c #E30707",
"y  c #E70505",
"u  c #E60506",
"i  c #E40606",
"p  c #E50606",
"a  c #E60606",
"s  c #E70606",
"d  c #E60607",
"f  c #E70607",
"g  c #EA0102",
"h  c #EA0202",
"j  c #EE0303",
"k  c #EF0503",
"l  c #E90404",
"z  c #E90405",
"x  c #EA0405",
"c  c #EB0405",
"v  c #EA0505",
"b  c #EB0505",
"n  c #E80605",
"m  c #EA0605",
"M  c #E90406",
"N  c #E80506",
"B  c #E80606",
"V  c #E90606",
"C  c #E80706",
"Z  c #EC0404",
"A  c #EC0504",
"S  c #EC0405",
"D  c #EC0505",
"F  c #EE0404",
"G  c #EF0404",
"H  c #EE0504",
"J  c #E00806",
"K  c #E10807",
"L  c #F10303",
"P  c #F20303",
"I  c #F30303",
"U  c #F40000",
"Y  c #F60000",
"T  c #F70000",
"R  c #F70102",
"E  c #F50202",
"W  c #F40203",
"Q  c #F50203",
"!  c #F50303",
"~  c #F60202",
"^  c #F70202",
"/  c #F60303",
"(  c #F10304",
")  c #F70104",
"_  c #F70304",
"`  c #F60207",
"'  c #F30404",
"]  c #F00607",
"[  c #F50404",
"{  c #F60607",
"}  c #F80000",
"|  c #F90000",
" . c #F90001",
".. c #F80101",
"X. c #F90101",
"o. c #FA0000",
"O. c #FB0000",
"+. c #FB0100",
"@. c #FA0001",
"#. c #FB0001",
"$. c #FA0101",
"%. c #FB0101",
"&. c #F90201",
"*. c #F90102",
"=. c #F80103",
"-. c #F90103",
";. c #FA0002",
":. c #FB0002",
">. c #FA0102",
",. c #FB0102",
"<. c #F80202",
"1. c #F90202",
"2. c #F80203",
"3. c #FC0000",
"4. c #FC0001",
"5. c #FC0102",
"6. c #F80404",
"7. c #F30209",
"8. c #F1020B",
"9. c #F1030B",
"0. c #F40208",
"q. c #F60708",
"w. c #F20A0B",
"e. c #F20B0B",
"r. c #F40908",
"t. c #F40809",
"y. c #F50909",
"u. c #F60809",
"i. c #F60909",
"p. c #F5080A",
"a. c #F5090A",
"s. c #F50B0B",
"d. c #F60C0B",
"f. c #F20B0C",
"g. c #F60C0C",
"h. c #F70E0C",
"j. c #EB0410",
"k. c #EC0410",
"l. c #EB1919",
"z. c #EE1A1A",
"x. c #F11214",
"c. c #F31E1E",
"v. c #D2082C",
"b. c #DC1526",
"n. c #DE1528",
"m. c #EF2D2D",
"M. c #F12323",
"N. c #F52324",
"B. c #F02D2C",
"V. c #F02C2D",
"C. c #F02D2D",
"Z. c #B6194E",
"A. c #A0135E",
"S. c #EF4344",
"D. c #EF5151",
"F. c #F15251",
"G. c #F05D5C",
"H. c #F17372",
"J. c #F27473",
"K. c #F17776",
"L. c #F17879",
"P. c #F27878",
"I. c #F17B7B",
"U. c #F07E7E",
"Y. c #7D1A81",
"T. c #7B1A84",
"R. c #641E9A",
"E. c #6D2497",
"W. c #5B21A5",
"Q. c #5A21A7",
"!. c #5922A6",
"~. c #372BCC",
"^. c #382BC9",
"/. c #1430ED",
"(. c #052EFA",
"). c #062EFC",
"_. c #072EFD",
"`. c #0333FF",
"'. c #0433FF",
"]. c #0632FF",
"[. c #0733FF",
"{. c #0830FC",
"}. c #1436F3",
"|. c #2447EE",
" X c #2749EF",
".X c #394DE5",
"XX c #364BE9",
"oX c #3150EA",
"OX c #2547F0",
"+X c #6E70DB",
"@X c #4F6BEA",
"#X c #516DE8",
"$X c #F38888",
"%X c #F48D8D",
"&X c #F3918E",
"*X c #EE9595",
"=X c #F39090",
"-X c #F39191",
";X c #F49191",
":X c #F29C9C",
">X c #F2AEAD",
",X c #F7B5B1",
"<X c #F1B5B6",
"1X c #F2B5B6",
"2X c #F6B5B4",
"3X c #F6B5B5",
"4X c #F5B8B7",
"5X c #F7B8B6",
"6X c #F5B9BA",
"7X c #F7BCBB",
"8X c #F5BCBC",
"9X c #BAA1D0",
"0X c #8197ED",
"qX c #E3BFC8",
"wX c #E3BDCA",
"eX c #F4C1C0",
"rX c #F5C7C5",
"tX c #F2CFCD",
"yX c #F7D1D0",
"uX c #F6DBDB",
"iX c #C8D5FB",
"pX c #DCE3F6",
"aX c #DDE3F6",
"sX c #DEE4F6",
"dX c #F9E6E6",
"fX c #FAE7E6",
"gX c #F9EAE9",
"hX c #FDECEA",
"jX c #F8EDED",
"kX c #FAEDED",
"lX c #E3E8F6",
"zX c #EBEFF8",
"xX c #EDF7FF",
"cX c #EEF8FE",
"vX c #FAF4F3",
"bX c #F6F9FD",
"nX c #FCF9F8",
"mX c #FBFFFF",
"MX c #FDFFFD",
"NX c #FDFEFE",
"BX c #FDFFFE",
"VX c #FDFFFF",
"CX c #FEFEFE",
"ZX c #FFFEFE",
"AX c #FEFFFE",
"SX c #FFFFFE",
"DX c #FEFFFF",
"FX c white",
/* pixels */
"                        A >.>.>.>.>./                       ",
"                        ' >.>.>.>.>.>.@                     ",
"                6 A A j >.>.>.>.>.>.>.L A Z t               ",
"                z >.5.>.>.>.>.>.>.>.>.>.>.>.L o             ",
"            0 ' >.>.>.>.>.>.>.>.>.>.>.>.>.>.>./ y           ",
"            z >.>.>.>.>.>.>.>.>.>.>.>.>.>.>.>.5.L O         ",
"        0 / >.>./ / / >.>.>.>.>.>.>.>.>.>./ / >.>.>.y       ",
"        - >.>.d.H.%X-XH.y.>.>.>.>.>./ F.-X%X$XN.>.5.z       ",
"        # >.[ z.yXVXVXtXl.[ >.>.>./ A *XVXVXvXS./ >.z       ",
"        # y.U.1XkXVXVXkX1XP.{ >.>.D.>XuXVXVXnX8X:Xc.h       ",
"        # s.8XVXVXVXMXVXVX2Xr.>.>.K.VXVXVXVXMXVXgXB.h       ",
"      J j w.6XVXVXVXVXMXVX2Xy.5.>.K.VXMXVXVXVXVXdXV./ J +   ",
"    < >.>.w.4XmXlXpXpXlXVX2Xy.>./ K.VXzXpXsXsXbXdXB.>.>.y   ",
"    < / >.w.8XxX@XOX|.#XcX5Xy.>.>.K.VX0X|. XoXiXhXB.5.>.d   ",
"    6 -.>.r.&XwXXX).).XXeX%X{ >./ G.rX+X(.].}.9X,XM.>.>.d   ",
"    6 -.>./ d.n.~.`.`.~.b.y.>.>.>.y.x.E.[.{./.Z.d.>.>.>.C   ",
"    6 / >.>.>.k.T.Q.Q.T.j.>.>.>.>.5.>.A.Q.W.R.v.5.>.>.>.l   ",
"    6 >.>.>.>.>.7.7.7.7.>.>.>.>.>.>.>.) 7.k.7.>.>.>.>.>.z   ",
"    6 / >.>.>.>.>.5.5.>.>.>.>.>.>.>.>.>.>.>.>.>.>.>.>.>.z   ",
"    6 >.>.>.>.>.>.>.>.>.>.>.>.>.>.>.>.>.>.>.>.>.>.>.>.>.C   ",
"    < >.>.>.>.>.>.>.>.5.>.>.>.>.>.>.>.>.>.>.>.>.>.>.>.>.y   ",
"    < >.>.>.>.>.>.>.L L >.>.>.>.>.>.>./ L >.>.>.>.>.>.>.y   ",
"    < >.>.>.>.>.5.k     L >.>.>.>.>.>.6   # >.>.>.>.>.5.t   ",
"    X l / >.>.>.A 0     * L >.>.>.L m     < h / >.>.>.A 6   ",
"        - >.5./             / 5.>.&           y >.5.A       ",
"        O z x -             # l y             6 z z 0       ",
"                                                            ",
"                                                            "
};
