/* XPM */
static char *ghost121639223855[] = {
/* columns rows colors chars-per-pixel */
"30 28 252 2 ",
"   c None",
".  c #CE0705",
"X  c #CB0807",
"o  c #C20C0A",
"O  c #C30C0C",
"+  c #D30706",
"@  c #D50706",
"#  c #D60707",
"$  c #D90707",
"%  c #DB0607",
"&  c #DA0707",
"*  c #DB0707",
"=  c #DC0707",
"-  c #DD0707",
";  c #D00907",
":  c #D50807",
">  c #D70807",
",  c #D90805",
"<  c #D80807",
"1  c #D90807",
"2  c #DB0806",
"3  c #DB0807",
"4  c #DD0805",
"5  c #D00808",
"6  c #D40909",
"7  c #D80908",
"8  c #D90809",
"9  c #D90909",
"0  c #DF0808",
"q  c #CC0A10",
"w  c #DF071E",
"e  c #E30706",
"r  c #E60505",
"t  c #E60506",
"y  c #E70506",
"u  c #E50606",
"i  c #E60606",
"p  c #E70606",
"a  c #EA0404",
"s  c #EA0504",
"d  c #EB0504",
"f  c #EA0505",
"g  c #EB0505",
"h  c #E80506",
"j  c #EA0506",
"k  c #E80606",
"l  c #E90607",
"z  c #EB0606",
"x  c #EE0404",
"c  c #EF0504",
"v  c #EE0405",
"b  c #EF0405",
"n  c #EC0605",
"m  c #ED0605",
"M  c #E10708",
"N  c #E20708",
"B  c #E00809",
"V  c #EA0D0C",
"C  c #F00000",
"Z  c #F00303",
"A  c #F10303",
"S  c #F50000",
"D  c #F60000",
"F  c #F70000",
"G  c #F50202",
"H  c #F40303",
"J  c #F50303",
"K  c #F70202",
"L  c #F60203",
"P  c #F70203",
"I  c #F60303",
"U  c #F00304",
"Y  c #F20304",
"T  c #F30304",
"R  c #F60305",
"E  c #F00404",
"W  c #F10404",
"Q  c #F70505",
"!  c #F70606",
"~  c #F80000",
"^  c #F90000",
"/  c #F90001",
"(  c #F80101",
")  c #F90101",
"_  c #FA0000",
"`  c #FB0000",
"'  c #FA0100",
"]  c #FB0100",
"[  c #FA0001",
"{  c #FB0001",
"}  c #FA0101",
"|  c #FB0101",
" . c #F80201",
".. c #F90201",
"X. c #F80102",
"o. c #F90102",
"O. c #FA0002",
"+. c #FB0002",
"@. c #FA0102",
"#. c #FB0102",
"$. c #F80202",
"%. c #F90202",
"&. c #F80203",
"*. c #F80303",
"=. c #FA0202",
"-. c #FC0000",
";. c #FC0100",
":. c #FC0001",
">. c #FC0101",
",. c #F1050B",
"<. c #F60808",
"1. c #F50B0B",
"2. c #F50C0A",
"3. c #F30F0F",
"4. c #F40F0F",
"5. c #F20F10",
"6. c #F11110",
"7. c #F21010",
"8. c #F31010",
"9. c #F41010",
"0. c #F21617",
"q. c #F01919",
"w. c #F41818",
"e. c #F21B1C",
"r. c #F21D1C",
"t. c #CE0A2F",
"y. c #F22323",
"u. c #F12727",
"i. c #F12D2D",
"p. c #F02E2D",
"a. c #F12E2E",
"s. c #F12F30",
"d. c #F22F30",
"f. c #EF3230",
"g. c #ED3637",
"h. c #ED3939",
"j. c #EE3939",
"k. c #ED3A3A",
"l. c #EC3B3A",
"z. c #B80D41",
"x. c #B11950",
"c. c #941567",
"v. c #9C1463",
"b. c #961669",
"n. c #BD3963",
"m. c #DB5555",
"M. c #EF4544",
"N. c #EE4A4A",
"B. c #ED4F4E",
"V. c #E85755",
"C. c #EE5B59",
"Z. c #ED5E5D",
"A. c #EF5E5D",
"S. c #ED5D5E",
"D. c #EE5E5E",
"F. c #F15A59",
"G. c #D76E6C",
"H. c #EE6868",
"J. c #F16C6C",
"K. c #EA7B7A",
"L. c #EF7D7C",
"P. c #F07472",
"I. c #F57573",
"U. c #F17C7B",
"Y. c #671E98",
"T. c #4226B1",
"R. c #0B2BD3",
"E. c #1C2DE6",
"W. c #172FED",
"Q. c #1439EF",
"!. c #072EF4",
"~. c #0A2DF4",
"^. c #052EF9",
"/. c #072EF9",
"(. c #062EFB",
"). c #0A31F7",
"_. c #0931FB",
"`. c #0C31F8",
"'. c #0932FC",
"]. c #0832FE",
"[. c #1534F1",
"{. c #1536F1",
"}. c #1D40F1",
"|. c #294AED",
" X c #2043F3",
".X c #BA6F9F",
"XX c #6C80D6",
"oX c #758AED",
"OX c #768AEE",
"+X c #738AF0",
"@X c #748BF1",
"#X c #758BF1",
"$X c #EE8586",
"%X c #EF9F9D",
"&X c #F5B1AC",
"*X c #F2BAB9",
"=X c #F6BBB9",
"-X c #F2BDBC",
";X c #B89DCB",
":X c #8095ED",
">X c #9FAFEF",
",X c #9AABF0",
"<X c #9CACF2",
"1X c #BFCDF4",
"2X c #F5C3C3",
"3X c #F7C4C3",
"4X c #F7C5C3",
"5X c #F8C4C4",
"6X c #F8D4D3",
"7X c #F6DCDB",
"8X c #C7CFF1",
"9X c #C4D3F5",
"0X c #D3DBF8",
"qX c #D5DDF8",
"wX c #D4DCF9",
"eX c #EDEFEA",
"rX c #F7E1E0",
"tX c #F7E3E2",
"yX c #F8E2E1",
"uX c #FAE8E7",
"iX c #F9E9E9",
"pX c #F9EAE8",
"aX c #FCECE8",
"sX c #FCEDEA",
"dX c #FAEEED",
"fX c #F8EFEF",
"gX c #FAEEEE",
"hX c #FAEFEE",
"jX c #E6EAF7",
"kX c #E4EAF8",
"lX c #FAF4F4",
"zX c #FBF6F6",
"xX c #FBF7F6",
"cX c #F2F8FC",
"vX c #FCFAF9",
"bX c #FDFAF9",
"nX c #FDFCFB",
"mX c #FFFEFB",
"MX c #FCFDFC",
"NX c #FDFEFD",
"BX c #FDFFFD",
"VX c #FEFFFC",
"CX c #FEFEFD",
"ZX c #FEFFFD",
"AX c #FFFFFD",
"SX c #FDFFFE",
"DX c #FCFFFF",
"FX c #FDFFFF",
"GX c #FEFEFE",
"HX c #FEFFFE",
"JX c #FFFFFE",
"KX c #FEFFFF",
/* pixels */
"                        J { { { { { c                       ",
"                      X R { I { { { x                       ",
"                0 a a c { { { { { I I c a a 9               ",
"                W >.{ { { I { { { { { { >.>.a               ",
"            B Y I { { { I { { { { I { { { { I U 6           ",
"            d { { r.C.S.Z.a.I { { { { { 2.B.S.F.m.          ",
"        N I { { S N.lXnXMXU.I { { { { I q.6XNXNX-XV .       ",
"        y { { e.H.%XbXNXNX*XP.a.{ { J F.$XpXNXNX7XL.G.      ",
"        y { { h.lXDXNXNXNXNXNXH.I { 3.3XDXNXNXNXNXNXeX      ",
"        y { { h.gXNXNX8XOX#XOXn.{ { 3.3XNXNXjX:XOX#XXX      ",
"        y { { h.gXNXNX<X~.(.~.c.>.{ 6.3XNXNXqXQ.(.(.R.      ",
"      4 d { { h.gXNXNX<X).'.`.b.>.>.6.4XNXNXqX X_.'.T.q     ",
"    y { { { { g.tXxXNX>XQ.{.E.v.=.{ 3.=XxXNXqX|.{.W.Y.,.4   ",
"    y { { I I 4.l.K.bXkX1X.Xz.w { { J f.V.tXcX9X;Xx.t.J <   ",
"    y { { { { { { M.rXuXaXI.{ { { { { { 0.3XpXaX&X2.>.{ $   ",
"    p { I { { I { 3.a.a.p.0.{ { { { { { <.y.a.a.y.*.{ I $   ",
"    p { { { { { { { { { { { { { { I { { { { { { { I { { 4   ",
"    p { { { { I { I { I { I { I { { { { { I { { { { { I 4   ",
"    p { { { { { { { { { { I { { { { { I I { { I { I { I -   ",
"    p { { { I { { { I { { { { { { I { { { { { { { { { =.-   ",
"    p { I { { I { { { { { { { { { I { { { I { { { =.{ { 4   ",
"    p { { { { { { { { I I { I { { { { { { { { { { =.=.I 0   ",
"    y { I S : < W { { { I y 9 9 : a { I { { x : < I { I $   ",
"    y { I y     a I { { {         < { { { I y     l { { $   ",
"    y W 5       O : { { {         4 { { Y .       o : I <   ",
"    B l             d Y I         6 I I l             m :   ",
"                                                            ",
"                                                            "
};
