/* XPM */
static char *ghost141639223855[] = {
/* columns rows colors chars-per-pixel */
"30 28 229 2 ",
"   c None",
".  c #C60707",
"X  c #CE0606",
"o  c #CB0808",
"O  c #CB0909",
"+  c #C80A0A",
"@  c #C90B0B",
"#  c #CD0809",
"$  c #CC0909",
"%  c #D80706",
"&  c #DE0605",
"*  c #DE0506",
"=  c #DD0606",
"-  c #DE0707",
";  c #DF0707",
":  c #D80806",
">  c #DB0806",
",  c #DC0806",
"<  c #DC070A",
"1  c #D20808",
"2  c #D1090A",
"3  c #D3090A",
"4  c #D10A0A",
"5  c #D10B0A",
"6  c #D40909",
"7  c #D70808",
"8  c #DB0908",
"9  c #E30506",
"0  c #E30606",
"q  c #E20706",
"w  c #E20707",
"e  c #E40506",
"r  c #EC0503",
"t  c #E80405",
"y  c #E90505",
"u  c #EB0404",
"i  c #EB0505",
"p  c #E90506",
"a  c #EA0406",
"s  c #E80706",
"d  c #ED0404",
"f  c #EC0504",
"g  c #ED0504",
"h  c #EC0405",
"j  c #ED0505",
"k  c #EF0404",
"l  c #EE0504",
"z  c #E30807",
"x  c #F10303",
"c  c #F20302",
"v  c #F30302",
"b  c #F20303",
"n  c #F30303",
"m  c #F50101",
"M  c #F70000",
"N  c #F70001",
"B  c #F60101",
"V  c #F70101",
"C  c #F60201",
"Z  c #F60102",
"A  c #F40302",
"S  c #F50302",
"D  c #F50203",
"F  c #F40303",
"G  c #F50303",
"H  c #F60202",
"J  c #F70202",
"K  c #F60203",
"L  c #F70203",
"P  c #F60303",
"I  c #F30403",
"U  c #F60403",
"Y  c #F00304",
"T  c #F30304",
"R  c #F10404",
"E  c #F00504",
"W  c #F20404",
"Q  c #F30404",
"!  c #F30506",
"~  c #F30606",
"^  c #F20707",
"/  c #F40404",
"(  c #F50505",
")  c #F60404",
"_  c #F70404",
"`  c #F50605",
"'  c #F50705",
"]  c #F50506",
"[  c #F40606",
"{  c #F40707",
"}  c #F50707",
"|  c #F60607",
" . c #F80000",
".. c #F80001",
"X. c #F90101",
"o. c #FA0000",
"O. c #FB0000",
"+. c #FA0001",
"@. c #FB0001",
"#. c #FA0101",
"$. c #FB0101",
"%. c #F80201",
"&. c #F90102",
"*. c #FA0002",
"=. c #FB0002",
"-. c #FA0102",
";. c #FB0102",
":. c #F80202",
">. c #F90202",
",. c #FA0202",
"<. c #FC0001",
"1. c #FC0101",
"2. c #F30208",
"3. c #F30209",
"4. c #F1020B",
"5. c #F1030B",
"6. c #F2020A",
"7. c #F2030B",
"8. c #F40208",
"9. c #F40209",
"0. c #F1030C",
"q. c #F60A09",
"w. c #F60B0B",
"e. c #F40C0B",
"r. c #F60C0B",
"t. c #F50C0C",
"y. c #ED100F",
"u. c #EA0311",
"i. c #EB0411",
"p. c #ED1111",
"a. c #E5141F",
"s. c #EB1918",
"d. c #EC1A1B",
"f. c #DC1428",
"g. c #DC1528",
"h. c #E51320",
"j. c #891775",
"k. c #881776",
"l. c #EF6666",
"z. c #F16766",
"x. c #F06767",
"c. c #F26968",
"v. c #EF7574",
"b. c #F27270",
"n. c #F27473",
"m. c #F17675",
"M. c #F27676",
"N. c #7E1A80",
"B. c #7D1982",
"V. c #5A21A6",
"C. c #5A21A7",
"Z. c #5822A6",
"A. c #4B28B7",
"S. c #4A28B9",
"D. c #392AC9",
"F. c #382BCB",
"G. c #052EFC",
"H. c #052FFC",
"J. c #062EFC",
"K. c #0433FF",
"L. c #0533FF",
"P. c #2447EF",
"I. c #2548EF",
"U. c #394CE7",
"Y. c #374BE8",
"T. c #2447F0",
"R. c #2547F0",
"E. c #4A56E3",
"W. c #4C58E2",
"Q. c #506BE9",
"!. c #516DEA",
"~. c #5F79EB",
"^. c #637AEA",
"/. c #F18686",
"(. c #F28886",
"). c #F39191",
"_. c #F49190",
"`. c #F49191",
"'. c #F09694",
"]. c #F09695",
"[. c #F39797",
"{. c #F09897",
"}. c #F39896",
"|. c #F39A99",
" X c #F39A9A",
".X c #F1ACAB",
"XX c #F2ACAC",
"oX c #F1AEAE",
"OX c #F3AEAE",
"+X c #F5AEAD",
"@X c #F6AEAD",
"#X c #F6B1AF",
"$X c #F1B2B2",
"%X c #F2B2B3",
"&X c #F5B0B0",
"*X c #F2B5B5",
"=X c #F2B6B5",
"-X c #F3BBBA",
";X c #F3BEBD",
":X c #E2BDCA",
">X c #E4BECA",
",X c #EBC3C9",
"<X c #ECC4C9",
"1X c #F6CDCC",
"2X c #F5D1D0",
"3X c #DCE3F6",
"4X c #DDE3F7",
"5X c #DCE4F6",
"6X c #DCE4F7",
"7X c #F9E7E6",
"8X c #F8E7E8",
"9X c #FAEDEC",
"0X c #FAEEED",
"qX c #E3E8F7",
"wX c #E3E9F7",
"eX c #E6EAF7",
"rX c #E6EAF8",
"tX c #ECF8FF",
"yX c #EEF8FF",
"uX c #F5FEFF",
"iX c #FBFFFF",
"pX c #FDFEFD",
"aX c #FDFFFE",
"sX c #FCFFFF",
"dX c #FDFFFF",
"fX c #FEFFFE",
"gX c #FFFFFE",
"hX c #FEFFFF",
"jX c white",
/* pixels */
"                        Q <.%.<.%.<.k                       ",
"                        k %.<.%.%.<.Q                       ",
"                7 l l x %.<.%.<.%.<.%.T p k 2               ",
"                p %.%.%.%.%.<.%.<.%.%.<.<.<.9               ",
"            5 Q %.%.<.%.<.%.<.%.<.%.<.%.<.%.%.x @           ",
"            e <.<.<.%.<.%.<.%.<.%.<.%.<.<.%.<.%.<           ",
"        + / %.%.%.%.%.%.%.<.<.%.<.%.%.%.%.P %.%.%.T         ",
"        $ %.%.w.b.)._.c.| %.<.<.%.<.w.b._._.z.' %.P         ",
"        + _ G s.1XhXhX;Xp.P %.<.%.| d.2XhXhX-Xy./ P         ",
"        # Q v.*X9XhXhX7X$Xl.%.%./ M.=X0XhXhX7X$Xl.G         ",
"        # Q XXhXhXhXpXpXhX|.P <.} &XhXhXhXhXpXhX|.x .       ",
"      , p / .XhXhXhXhXhXhX}.%.%./ +XhXhXhXhXhXhX'.P a 8     ",
"      / %.| XXhXeX3X3XeXhX[.P %.} #XhXqX6X3XeXiX'.P %.x     ",
"      %.<./ OXyX!.T.T.~.uX|.P <.} &XtXQ.I.P.^.uX].P %.P     ",
"      G <./ /.:XU.J.J.E.<XM.P %./ (.:XY.J.J.W.,Xb.P <.P     ",
"      P %.%.w.g.D.K.L.S.a.| %.%.%.w.g.F.K.L.A.a.w.%.<.x     ",
"      P %.<.<.i.N.V.V.k.7.%.%.<.%.<.u.N.V.V.j.7.<.%.<.G     ",
"      G <.%.%.%.8.7.7.7.%.%.%.<.%.<.%.7.4.7.8.%.<.%.=.G     ",
"      %.<.%.<.%.<.<.<.<.<.%.<.%.<.%.<.<.<.<.<.%.%.<.%.G     ",
"      %.<.<.%.<.%.<.%.%.%.<.%.<.%.<.%.<.%.<.%.<.<.%.=.G     ",
"      P <.<.%.<.%.<.%.<.<.%.%.%.%.<.<.%.%.<.%.<.%.<.<.G     ",
"      P %.%.P T %.<.<.%.%.%.G T G _ %.<.<.%.%.G %.%.%.G     ",
"      P <.P +   e <.%.<.=.<       e <.%.<.%.e   5 %.<.x     ",
"      P x z     7 k %.%.<.%       ; <.%.%.k 5     p x P     ",
"      P X           T %.%.;       ; %.<.k           % I     ",
"      q             ; u p         5 p k <             q     ",
"                                                            ",
"                                                            "
};
