/* XPM */
static char *ghost151639223855[] = {
/* columns rows colors chars-per-pixel */
"30 28 208 2 ",
"   c None",
".  c #BF0C0C",
"X  c #9A1036",
"o  c #C20403",
"O  c #C7090B",
"+  c #C60C0B",
"@  c #CB0908",
"#  c #CB090A",
"$  c #CF0808",
"%  c #CF0A0A",
"&  c #D20707",
"*  c #D40707",
"=  c #DA0707",
"-  c #DD0707",
";  c #D70608",
":  c #DE0708",
">  c #D00809",
",  c #D40808",
"<  c #D50808",
"1  c #D50908",
"2  c #D40809",
"3  c #D50809",
"4  c #D40909",
"5  c #D70808",
"6  c #D60809",
"7  c #D70809",
"8  c #D80808",
"9  c #D90808",
"0  c #DC0A08",
"q  c #DC0710",
"w  c #E20404",
"e  c #E20505",
"r  c #E10605",
"t  c #E10506",
"y  c #E20506",
"u  c #E00607",
"i  c #E50605",
"p  c #E70406",
"a  c #E50606",
"s  c #E60606",
"d  c #EE0101",
"f  c #E80505",
"g  c #E90505",
"h  c #EA0605",
"j  c #E80606",
"k  c #ED0504",
"l  c #EC0505",
"z  c #ED0505",
"x  c #EE0404",
"c  c #EC0406",
"v  c #F00000",
"b  c #F10000",
"n  c #F20303",
"m  c #F30303",
"M  c #F60000",
"N  c #F70000",
"B  c #F50203",
"V  c #F50303",
"C  c #F70202",
"Z  c #F70203",
"A  c #F70303",
"S  c #F10403",
"D  c #F20403",
"F  c #F30304",
"G  c #F00404",
"H  c #F70506",
"J  c #F70606",
"K  c #F70607",
"L  c #F80000",
"P  c #F90000",
"I  c #F90001",
"U  c #F90101",
"Y  c #FA0000",
"T  c #FB0000",
"R  c #FA0001",
"E  c #FB0001",
"W  c #FA0101",
"Q  c #FB0101",
"!  c #F80102",
"~  c #F90102",
"^  c #F90103",
"/  c #FA0002",
"(  c #FB0002",
")  c #FA0102",
"_  c #FB0102",
"`  c #F80202",
"'  c #F90202",
"]  c #FC0000",
"[  c #FC0001",
"{  c #FC0101",
"}  c #F80506",
"|  c #F60909",
" . c #F31313",
".. c #F41111",
"X. c #F11515",
"o. c #F31414",
"O. c #F31515",
"+. c #F21616",
"@. c #F41415",
"#. c #F41515",
"$. c #F41516",
"%. c #F2191A",
"&. c #F3191A",
"*. c #F21A1B",
"=. c #F41818",
"-. c #F11D1C",
";. c #F21C1C",
":. c #F21C1D",
">. c #F21D1D",
",. c #CC082A",
"<. c #D02425",
"1. c #EF2424",
"2. c #F32121",
"3. c #F02A2B",
"4. c #F12A2B",
"5. c #ED3536",
"6. c #EC3737",
"7. c #F14D4B",
"8. c #EB5757",
"9. c #E7595A",
"0. c #C85B7A",
"q. c #ED6060",
"w. c #F16565",
"e. c #F16869",
"r. c #F16B6C",
"t. c #F16C6E",
"y. c #F06F6F",
"u. c #F06F70",
"i. c #F07070",
"p. c #F37A79",
"a. c #F27D7D",
"s. c #6E1B8A",
"d. c #6845B7",
"f. c #0C2BCD",
"g. c #0D30DF",
"h. c #242CD3",
"j. c #0D31ED",
"k. c #1F36E8",
"l. c #1338EE",
"z. c #042BF6",
"x. c #042CF7",
"c. c #062EF8",
"v. c #072EF9",
"b. c #0932F1",
"n. c #0A32F0",
"m. c #0D31F0",
"M. c #0A31FB",
"N. c #0831FC",
"B. c #0832FD",
"V. c #0A32FC",
"C. c #3A56DF",
"Z. c #1D40EF",
"A. c #1E42F0",
"S. c #6B82EE",
"D. c #6F87EF",
"F. c #DF9191",
"G. c #EFACAC",
"H. c #F2AAA8",
"J. c #F6BEBE",
"K. c #95A1D5",
"L. c #8498EF",
"P. c #8598F0",
"I. c #869AF1",
"U. c #879AF1",
"Y. c #91A2ED",
"T. c #93A2EE",
"R. c #B7C2F1",
"E. c #BAC4F2",
"W. c #F6C0C1",
"Q. c #F7C1C1",
"!. c #F5C3C3",
"~. c #F6CBCB",
"^. c #F7CDCD",
"/. c #F7CECD",
"(. c #F7CFCD",
"). c #F8CFCD",
"_. c #F7D0CF",
"`. c #F9D9D8",
"'. c #F9DBD9",
"]. c #F8DADA",
"[. c #F5E0DE",
"{. c #D4DBF6",
"}. c #D3DDF5",
"|. c #F8EBEB",
" X c #F8EDED",
".X c #FAEDED",
"XX c #FAEDEE",
"oX c #EAEFFA",
"OX c #E8F0FA",
"+X c #FBF2F2",
"@X c #FBF3F2",
"#X c #FCF7F6",
"$X c #FCF7F7",
"%X c #F8F8F5",
"&X c #FAFCFB",
"*X c #FDFDFA",
"=X c #FDFCFC",
"-X c #FEFDFC",
";X c #FDFFFD",
":X c #FEFEFD",
">X c #FEFFFD",
",X c #FFFFFD",
"<X c #FDFEFE",
"1X c #FDFFFF",
"2X c #FEFFFE",
"3X c #FFFFFE",
"4X c #FEFFFF",
"5X c white",
/* pixels */
"                        ` ` ] ] ` ] s                       ",
"                      X ` ` ] ` ] ` :                       ",
"                j.j.b.s.` ] ` ] ] ] ,.h.b.j.f.              ",
"              K.l.b.N.d.9.4.` ` | 7.0.k.N.N.C.              ",
"            %X{.A.v.x.S.<Xi.` ] X._.}.Z.x.z.D.-X            ",
"          <.[.oXT.U.L.E.<Xy.` ] $.).OXY.U.L.E.<XF.o         ",
"        t X.~.<X<X<X<X<X<Xy.` ] $.).<X<X<X-X<X<Xy.d         ",
"        t  .).<X<X<X<X<X<Xy.` ` $._.<X<X<X-X<X<Xt.m         ",
"        t  .J.+X<X<X<X$XXXe.` ` @.W.+X-X<X<X#X.Xw.m         ",
"        t H 4.8.|.<X<XH.6.*.` ] } 4.9.XX<X<XH.5.$.G         ",
"        w ` ] 2.Q.`.`.a.` ` ` ] ] ` 2.!.`.'.p.V ] G         ",
"      j V ] ` } &.;.;. .` ] ` ] ` ` K &.>.;. .] ] ` G 0     ",
"    8 ` ] ` ` ] ] ` ` ] ] ] ` ] ` ] ` ` ` ] ] ` ] ` ] z     ",
"    ; ` ` ] ] ` ` ] ] ` ` ] ] ` ] ` ] ` ] ] ` ] ` ] ] z     ",
"    7 ` ] ` ] ` ] ` ` ] ` ] ` ] ` ] ` ] ` ] ] ` ] ` ] z     ",
"    9 ` ` ] ` ] ` ] ] ` ] ` ] ` ] ` ] ` ] ` ` ] ` ( ] z     ",
"    9 ` ` ` ] ` ] ` ] ` ] ` ] ` ] ` ] ` ] ` ] ` ] ` ] z     ",
"    9 ` ` ] ` ] ` ] ` ] ` ] ` ] ` ] ` ] ` ] ` ] ` ] ] z     ",
"    7 ` ] ` ] ` ] ` ] ` ] ` ] ` ] ` ] ` ] ` ] ` ] ` ` z     ",
"    7 V ` ] ` ] ` ] ` ] ` ] ` ] ` ] ` ] ` ] ` ] ` ] ] z     ",
"    ; ` ] ] ` ] ` ] ] ` ] ` ] ` ] ` ` ` ] ] ` ] ` ` ] z     ",
"    7 ` ` ] ` ] ` m s z ` ] ` ] ` ] V s j ` ] ` ] ] ] z     ",
"    7 ` ] ` ` ] ` :     ^ ` ] ` ] ] s     m ] ` ] ` ] j     ",
"      9 G ] ` m * +     7 j ` ] V : +     7 p ` ` ' u $     ",
"        u ^ ` j           > V ` c             V ` S         ",
"          ; ; O             & * #             $ * #         ",
"                                                            ",
"                                                            "
};
