/* XPM */
static char *ghost171639223854[] = {
/* columns rows colors chars-per-pixel */
"30 28 236 2 ",
"   c None",
".  c #7E1B76",
"X  c #CF0607",
"o  c #C70A09",
"O  c #C70A0A",
"+  c #CC0A0A",
"@  c #D60705",
"#  c #D60707",
"$  c #D80707",
"%  c #DB0707",
"&  c #DD0505",
"*  c #DF0705",
"=  c #DD0706",
"-  c #DD0607",
";  c #DE0607",
":  c #DF0607",
">  c #D60906",
",  c #DE0807",
"<  c #D50708",
"1  c #DD0708",
"2  c #D30908",
"3  c #D00A09",
"4  c #D0090A",
"5  c #D40808",
"6  c #D50808",
"7  c #D70908",
"8  c #D60809",
"9  c #D4080A",
"0  c #DB0809",
"q  c #DC0909",
"w  c #E00705",
"e  c #E30605",
"r  c #E10706",
"t  c #E50505",
"y  c #E60404",
"u  c #E60505",
"i  c #E50604",
"p  c #E60605",
"a  c #E60506",
"s  c #E60606",
"d  c #EF0000",
"f  c #EF0303",
"g  c #EE0403",
"h  c #EF0403",
"j  c #EF0304",
"k  c #EE0305",
"l  c #E90404",
"z  c #EA0404",
"x  c #EB0404",
"c  c #EA0505",
"v  c #EB0505",
"b  c #E80606",
"n  c #EB0606",
"m  c #EC0404",
"M  c #EC0405",
"N  c #ED0405",
"B  c #ED0505",
"V  c #EE0404",
"C  c #EE0504",
"Z  c #EE0405",
"A  c #EF0405",
"S  c #EF0506",
"D  c #E10806",
"F  c #F00303",
"G  c #F10303",
"H  c #F30202",
"J  c #F30302",
"K  c #F20203",
"L  c #F20303",
"P  c #F60000",
"I  c #F70000",
"U  c #F60101",
"Y  c #F70101",
"T  c #F70102",
"R  c #F40203",
"E  c #F50303",
"W  c #F60202",
"Q  c #F70202",
"!  c #F60302",
"~  c #F60203",
"^  c #F70203",
"/  c #F60303",
"(  c #F70303",
")  c #F30403",
"_  c #F10304",
"`  c #F20304",
"'  c #F70204",
"]  c #F10405",
"[  c #F70506",
"{  c #F50707",
"}  c #F70707",
"|  c #F80000",
" . c #F90000",
".. c #F80001",
"X. c #F80101",
"o. c #F90101",
"O. c #FA0000",
"+. c #FB0000",
"@. c #FA0001",
"#. c #FB0001",
"$. c #FA0101",
"%. c #FB0101",
"&. c #F80201",
"*. c #F80102",
"=. c #F90102",
"-. c #FA0002",
";. c #FB0002",
":. c #FA0102",
">. c #FB0102",
",. c #F80202",
"<. c #F80203",
"1. c #F90203",
"2. c #FA0202",
"3. c #FC0001",
"4. c #FC0102",
"5. c #F3020A",
"6. c #F0030D",
"7. c #F10B0A",
"8. c #F60808",
"9. c #F60909",
"0. c #F4090A",
"q. c #F6080A",
"w. c #F50A0A",
"e. c #F20C0B",
"r. c #F30C0C",
"t. c #F30C0D",
"y. c #F00E0E",
"u. c #F40E0E",
"i. c #E30615",
"p. c #E20F1F",
"a. c #ED1C1C",
"s. c #F31414",
"d. c #ED201F",
"f. c #EB2E2D",
"g. c #AB1252",
"h. c #90166D",
"j. c #D75453",
"k. c #F0504F",
"l. c #F05252",
"z. c #F35756",
"x. c #F35959",
"c. c #F05D5E",
"v. c #F26260",
"b. c #F06D6C",
"n. c #F16D6D",
"m. c #F26D6E",
"M. c #F06E6E",
"N. c #F37574",
"B. c #F37576",
"V. c #F1797A",
"C. c #2026B3",
"Z. c #6C1C91",
"A. c #6D1E93",
"S. c #4425BC",
"D. c #072FF7",
"F. c #052DFB",
"G. c #062EFB",
"H. c #052FFC",
"J. c #0430FD",
"K. c #0630FC",
"L. c #0733FC",
"P. c #0533FF",
"I. c #1137F5",
"U. c #1237F6",
"Y. c #4128C2",
"T. c #2346F2",
"R. c #4147DD",
"E. c #404EE5",
"W. c #4966ED",
"Q. c #4865EE",
"!. c #4865EF",
"~. c #4965EF",
"^. c #516CEA",
"/. c #5671EC",
"(. c #5E77EA",
"). c #4768F0",
"_. c #933B8D",
"`. c #F28A89",
"'. c #EE9296",
"]. c #F19190",
"[. c #F19493",
"{. c #F09998",
"}. c #F19B9B",
"|. c #F59998",
" X c #F59999",
".X c #F49A9B",
"XX c #F49B9B",
"oX c #F69B9B",
"OX c #E496A1",
"+X c #F2A3A3",
"@X c #F4A2A1",
"#X c #F4A3A2",
"$X c #F5A3A3",
"%X c #F5BAB8",
"&X c #F3BDBC",
"*X c #F3BFBE",
"=X c #E8B6C2",
"-X c #F3C1C0",
";X c #F3C7C6",
":X c #F5C9C8",
">X c #F5CDCD",
",X c #F7D3D3",
"<X c #F7DBDB",
"1X c #C1CBF6",
"2X c #CED6F5",
"3X c #D2D8F5",
"4X c #DCE3F5",
"5X c #DCE3F6",
"6X c #F8E0E0",
"7X c #F9E2E0",
"8X c #F8E4E4",
"9X c #FAEFEE",
"0X c #FCF1EF",
"qX c #E4E9F6",
"wX c #E5EAF6",
"eX c #FEF8F5",
"rX c #F5F7FA",
"tX c #F4F7FB",
"yX c #F3F7FC",
"uX c #F1F8FC",
"iX c #F3F8FC",
"pX c #F0FAFF",
"aX c #F0FBFF",
"sX c #F3FDFF",
"dX c #FBFCFC",
"fX c #F9FFFF",
"gX c #FBFFFF",
"hX c #FCFDFC",
"jX c #FFFFFD",
"kX c #FDFFFE",
"lX c #FCFFFF",
"zX c #FDFFFF",
"xX c #FEFEFE",
"cX c #FFFFFE",
"vX c #FEFFFF",
"bX c white",
/* pixels */
"                        > D * * D D +                       ",
"                        _ #.#.#.#.#.Z                       ",
"                9 z z Z Y #.#.#.( #.Y z z n o               ",
"                y #.4.#.#.#.Y #.#.#.#.#.#.( *               ",
"            X d Y Y #.Y #.#.#.Y #.Y Y Y Y #.E z             ",
"            j.b.n.c.u.#.Y #.#.#.E l.n.b.l.w.#.#.$           ",
"          z {.bXbX<Xd.#.#.#.#.Y 0.%XhXbX*Xy.Y #.#.Z         ",
"          [.,XbXhX9X+Xn.0.#.Y z.}.7XbXbX8X}.x.Y #.]         ",
"          tXtXtXhXbXhX*Xu.#.Y '.sXtXrXjXhXhXoXY #.Y         ",
"          !.!.^.2XbXbX&X7.#.Y _.).!.(.wXbXbX|.Y #.)         ",
"        C.D.H.U.1XbXbX&Xu.#.' Z.K.H.T.4XbXhX{.Y #._         ",
"      D . L.K.U.1XbXbX&Xu.#.' A.K.H.T.4XbXbXoX#.#.Y Z q     ",
"      ) g.S.R.Q.2XeX>X].0.#.Y h.Y.T.(.wX0X:XB.Y #.#.#.Z     ",
"      ] 5.i.OXaXfX7Xf.0.Y #.#.6.p.=XdXjX;Xa.w.Y #.#.#.Z     ",
"      ] #.Y v.$X+X`.s.#.#.Y #.#.w.N.#X+XV.w.#.#.#.#.Y Z     ",
"      ) #.#.' E Y Y Y #.#.#.#.#.#.' Y Y ' #.#.#.Y #.#.Z     ",
"      _ 4.#.#.#.#.#.#.#.#.Y #.#.#.Y #.#.#.#.#.Y Y #.#.Z     ",
"      _ 4.#.#.#.Y #.Y #.#.#.Y #.#.#.Y #.Y #.#.#.#.#.#.Z     ",
"      L #.Y Y #.#.#.#.Y #.#.#.#.#.#.#.#.#.Y #.Y #.#.#.Z     ",
"      ] #.#.#.#.Y #.#.#.Y #.Y #.Y #.Y #.#.#.#.#.Y #.#.Z     ",
"      ] #.#.#.#.#.#.Y #.#.#.4.#.#.#.#.#.#.#.#.Y #.#.#.z     ",
"      ) #.Y z i ) #.#.#.#.Z y z D ] Y #.Y #.Z y g #.4.g     ",
"      ] 4.!     e #.#.#.! 9       * #.Y #.#.>   9 ( #.Z     ",
"      ] z 9     + * ] #.! >       1 #.#.Z 1       q Z Z     ",
"      ] 9           y #.( 3       % #.#.,           , Z     ",
"      O               9 9           9 3                     ",
"                                                            ",
"                                                            "
};
