/* XPM */
static char *ghost111639223854[] = {
/* columns rows colors chars-per-pixel */
"32 30 99 2 ",
"   c None",
".  c #BE0A0A",
"X  c #CE0708",
"o  c #C40B0B",
"O  c #CE090A",
"+  c #D30606",
"@  c #D90606",
"#  c #DF0807",
"$  c #D50708",
"%  c #D20909",
"&  c #DC0908",
"*  c #E50606",
"=  c #EB0504",
"-  c #E20708",
";  c #F50202",
":  c #FA0001",
">  c #F60408",
",  c #F40C0C",
"<  c #E60616",
"1  c #E90513",
"2  c #F40F10",
"3  c #E71111",
"4  c #EE1413",
"5  c #F41213",
"6  c #F31719",
"7  c #F21A1A",
"8  c #D20B20",
"9  c #DA0820",
"0  c #D8172F",
"q  c #DC3A39",
"w  c #F22625",
"e  c #ED3C3C",
"r  c #F03534",
"t  c #F23E3E",
"y  c #83197B",
"u  c #EC3E40",
"i  c #EC4746",
"p  c #F24748",
"a  c #F24C4D",
"s  c #E65655",
"d  c #EA6E6F",
"f  c #F16161",
"g  c #F16D6C",
"h  c #F17C7B",
"j  c #621F9E",
"k  c #6F2697",
"l  c #63209D",
"z  c #152DDF",
"x  c #1B3BDE",
"c  c #3828C7",
"v  c #332ACC",
"b  c #382BCC",
"n  c #183CEE",
"m  c #062EF7",
"M  c #0730F7",
"N  c #0632FE",
"B  c #0931FC",
"V  c #153BF4",
"C  c #193EF2",
"Z  c #3943DE",
"A  c #2445EB",
"S  c #384CE6",
"D  c #3655EC",
"F  c #415EE8",
"G  c #D7859C",
"H  c #EE8483",
"J  c #F28282",
"K  c #F08E8D",
"L  c #EF9695",
"P  c #F59895",
"I  c #DC93A2",
"U  c #EFAFAF",
"Y  c #F4A4A2",
"T  c #F4BCBC",
"R  c #98A9ED",
"E  c #91A3F1",
"W  c #A5B3EE",
"Q  c #E3BDCC",
"!  c #F4C7C5",
"~  c #F4C8C8",
"^  c #F4D0CE",
"/  c #F6D3D1",
"(  c #F8D5D3",
")  c #F5DBDA",
"_  c #C2CCEC",
"`  c #C3CDF3",
"'  c #C7D0F1",
"]  c #CBD4F5",
"[  c #CAD7FA",
"{  c #F8E6E5",
"}  c #F4E8E5",
"|  c #FCF1EF",
" . c #E7EBF7",
".. c #EAF4FD",
"X. c #FBF5F4",
"o. c #FFFAF7",
"O. c #F1F4FA",
"+. c #F4F9FD",
"@. c #FEFFFE",
/* pixels */
"                        ; : : : : : : *                         ",
"                      % ; : : : : : : *                         ",
"              o = = = ; : : : : : : : ; ; = = %                 ",
"              $ : : : : : > : : : : : : : : : -                 ",
"          . = ; ; : : : : : : : : : : : : : : ; = $             ",
"          + : : ; 7 t e e w : : : : : : : 5 e e e q             ",
"      o = ; : : ; g | X.X.K ; : : : : : : t { X.X.T 3 @         ",
"      % : : : w r L @.@.@.U e w : : : 5 r d X.@.@./ i q         ",
"      % : : ; h | X.@.@.@.o.X.P ; : : p { X.o.@.@.o.X.{         ",
"      % : : ; J @.@.@. .] ] [ G ; : : a X.@.@.O.] ] ] _         ",
"      O : : ; J @.@.@.R n C C k > : ; a X.@.@.' A C C x         ",
"      $ : : : J @.@.@.E M B N l > : : a X.@.@.` V B B z         ",
"  o = ; : : ; J @.@.@.E m B N l > : : a o.@.@.` V N N v 8 &     ",
"  % > : : : : d ^ { @.W D Z c y > : : u ! ) o.] F S b j < =     ",
"  % ; : : : : 2 4 H @.+...I 9 1 : : : > 4 s o.+...Q 0 < : *     ",
"  $ : : : : : : : f / / / h ; : : : : : : e ~ / ( Y , : : *     ",
"  $ : : : : : : : > 6 6 7 5 : : : : : : : > 7 6 7 5 ; : : =     ",
"  $ ; : : : : : : ; : : : : : : : : : : : : : : : : : : : =     ",
"  $ ; : : : : : : : : : : : : : : : : : : : : : : : : : : *     ",
"  % : : : : : : : : : : : : : : : : : : : : : : : : : : : =     ",
"  O ; : : : : : : : : : : : : : : : : : : : : : : : : : : =     ",
"  % ; : : : : : : : : : : : : : : : : : : : : : : : : : : =     ",
"  % : : : : : : : : : : : : : : : : : : : : : : : : : : : *     ",
"  $ > : : : : : ; ; * = : : : : : : : ; = = : : : : : : : *     ",
"  % > : : : : : > %   o ; : : : : : : -     > : : : : : : *     ",
"  . - ; : : : ; -       - = : : : = * O     & = : : : ; = %     ",
"      % : : ; O           o ; : : &             ; : : *         ",
"      o * = *               * = = O             & = = &         ",
"                                                                ",
"                                                                "
};
