/* XPM */
static char *pacman41639223856[] = {
/* columns rows colors chars-per-pixel */
"30 30 129 2 ",
"   c #E6DB03",
".  c #E5DD0C",
"X  c #E8DD09",
"o  c #E6DC12",
"O  c #E8DF16",
"+  c #DFF002",
"@  c #DEE219",
"#  c #E0E407",
"$  c #EFEE00",
"%  c #E7E40B",
"&  c #EDE308",
"*  c #EEEC0D",
"=  c #F6EB00",
"-  c #FCEE02",
";  c #F0E70E",
":  c #F4EC0E",
">  c #FCEE0A",
",  c #EDF002",
"<  c #E6F70B",
"1  c #EDF00D",
"2  c #F6F301",
"3  c #FBF302",
"4  c #F7F901",
"5  c #FDF901",
"6  c #F7F30B",
"7  c #FBF20B",
"8  c #FEF90D",
"9  c #E1E012",
"0  c #E8EE10",
"q  c #E9EB1B",
"w  c #F1E716",
"e  c #F4EC13",
"r  c #FBEF12",
"t  c #F1E419",
"y  c #F6EC1E",
"u  c #EFF91C",
"i  c #F4F611",
"p  c #FCF112",
"a  c #F7FA17",
"s  c #F7F71D",
"d  c #FBF41A",
"f  c #DDD52A",
"g  c #D9DC2B",
"h  c #D7D238",
"j  c #E9DB20",
"k  c #E4DD2A",
"l  c #E4E728",
"z  c #F5ED2D",
"x  c #FCF626",
"c  c #F7F429",
"v  c #FFF529",
"b  c #F7FB2A",
"n  c #F9F82A",
"m  c #F4EC33",
"M  c #F4EB39",
"N  c #FDF532",
"B  c #FAF63D",
"V  c #F0FC3A",
"C  c #D5D14B",
"Z  c #D3D351",
"A  c #FDF844",
"S  c #FAF655",
"D  c #F6F75B",
"F  c #F7EA67",
"G  c #FCEF6D",
"H  c #FCF765",
"J  c #FDF965",
"K  c #F5F66A",
"L  c #FFF76A",
"P  c #FCFB6B",
"I  c #E5E176",
"U  c #F9E67F",
"Y  c #FDF573",
"T  c #FBFC7D",
"R  c #E2DA92",
"E  c #F7F483",
"W  c #FCF583",
"Q  c #FCFA85",
"!  c #FCF48B",
"~  c #F3FB8E",
"^  c #FCFA8E",
"/  c #FDE79B",
"(  c #FFE89C",
")  c #FFF595",
"_  c #F1F994",
"`  c #FFFC93",
"'  c #F7F69A",
"]  c #F9F29B",
"[  c #F4F99F",
"{  c #FAFA9C",
"}  c #D5D3A0",
"|  c #EBE8A1",
" . c #F6F6A3",
".. c #FFF1A0",
"X. c #F4F9A5",
"o. c #FFF8A0",
"O. c #FEF5AA",
"+. c #FBFCAD",
"@. c #F6E8BB",
"#. c #F3F1B6",
"$. c #F4FBB3",
"%. c #FCF9B6",
"&. c #F3F4BB",
"*. c #FEFABB",
"=. c #EDE2C4",
"-. c #F4EDC6",
";. c #FAEDC1",
":. c #F7E6C8",
">. c #F8F2C2",
",. c #FFFAC3",
"<. c #FDFBCD",
"1. c #FDF4D5",
"2. c #FCFCD4",
"3. c #F3F0DF",
"4. c #F8F5DD",
"5. c #FEFADC",
"6. c #FAEDE7",
"7. c #FFF7E3",
"8. c #FFFBE3",
"9. c #FFF4EB",
"0. c #F5FEEE",
"q. c #000000",
"w. c #000000",
"e. c #000000",
"r. c #000000",
"t. c #000000",
"y. c #000000",
"u. c #000000",
"i. c #000000",
/* pixels */
"i.i.i.t.t.i.i.t.u.$./ O.' _ X.[  .) ] ] 2.u.q.i.u.i.i.t.i.y.",
"i.t.t.i.i.i.i.u.i.S 3 3 3 3 - - 2 - - 2 ^ i.i.i.i.i.i.i.i.t.",
"i.i.i.i.t.5.i.7.e.D 2 7 > 5 3 - 5 7 3 2 T t.t.t.9.i.r.i.i.t.",
"u.t.u.i.#.< x d n 2 2 3 3 2 3 > = 5 - 3 7 c s d n q.i.t.i.i.",
"i.i.t.i.;.2 > - 3 - - 7 3 3 2 4 2 5 3 7 > > - 3 7 2.i.i.i.t.",
"i.y.I A v 2 d 2 2 3 2 2 - > - 2 - 7 3 - 7 7 4 2 : B V  .i.q.",
"i.e.h = - 3 3 2 - 3 3 - - 5 3 - 3 3 - 3 3 - - - 3 3 2 E i.t.",
"r.y.Z 5 7 - - 3 - 3 7 2 3 3 3 7 7 2 2 3 3 3 > 4 3 - - W i.t.",
"u.e.C 8 - - 5 - 2 7 2 6 7 3 2 3 p 4 - - 7 3 2 3 - - 2 ) i.u.",
"} R f 3 3 3 3 4 - 3 2 2 > N Q ! y 2 - 3 3 3 2 7 3 3 7 Y 2.4.",
"# = 3 3 3 3 : 3 7 3 3 2 7 H t.i.z 3 - 3 3 3 3 3 p 7 3 2 i 9 ",
"z 3 5 > 7 3 > 3 3 - 7 7 2 P i.u.m 2 7 - 3 3 3 - 2 2 - 3 5 O ",
"e 3 - 3 3 4 3 - 4 - 7 > - H i.0.M 2 7 3 3 3 3 - 3 5 - 3 5 o ",
"* 5 3 7 7 2 3 - 4 - 3 > - H i.t.M 2 3 3 3 2 3 - : 3 - 3 3 O ",
"; 5 - 3 3 - 3 r 3 - 3 4 - L i.i.m 2 3 - 3 2 3 3 5 3 3 7 7 j ",
": 3 7 - 3 7 4 3 > > 3 2 - H q.u.z 3 3 3 6 3 2 3 3 p 7 2 4 X ",
"w 5 7 3 3 3 3 3 3 3 3 K $.<.i.t.%.+.J 3 3 2 - 3 - - 5 - 5   ",
"& - - 3 3 3 3 > r 3 3 O.i.t.i.i.i.i.{ 7 5 - r 3 3 3 4 : 8 % ",
"> 7 7 3 r > 3 5 3 3 3 { t.t.i.t.i.i.` - 3 3 4 2 > 3 3 2 5 . ",
"t 4 3 > 3 3 - 3 > 3 4 { i.i.i.i.i.u.^ 3 > 3 3 e - - > > 3 o ",
"9 , = 4 3 3 3 2 3 5 3 O.i.i.t.i.i.u.` - p > 3 3 3 7 3 2 a l ",
"=.:.F 2 3 3 - 7 5 3 - ' i.t.i.i.i.u.` - - - 3 3 2 6 : ! 8.t.",
"t.i.! 2 - - 4 3 2 6 2 ~ i.t.i.i.t.r.{ 7 2 2 - 3 3 2 2 ! i.u.",
"r.i.Q 7 > 3 3 2 , U ( 7.r.i.i.i.i.i.5./ K i 3 7 3 7 2 ) i.i.",
"u.i.Q 4 7 5 - 7 = -.u.i.i.i.i.i.i.i.t.u.<.= - 2 2 5 = E i.u.",
"i.i.| g k 2 7 3 > ;.r.t.y.i.u.i.i.i.i.u.*.= > 3 p J Y %.i.t.",
"i.i.e.w.@.4 3 3 = ;.i.t.i.i.i.i.t.t.i.i.,.- 3 8 d 8.i.t.y.i.",
"i.t.i.i.#.< % e * #.i.i.i.i.u.t.i.i.i.i.&.q * 0 u 2.u.u.i.i.",
"i.i.t.i.e.4.9.7.6.u.u.i.i.i.i.i.t.i.i.i.i.1.9.7.6.i.i.t.u.i.",
"i.i.t.i.i.i.i.u.i.i.t.u.i.i.i.i.i.i.i.i.i.i.i.t.u.t.i.i.u.i."
};
