/* XPM */
static char *pacman01639223855[] = {
/* columns rows colors chars-per-pixel */
"30 30 84 1 ",
"  c #E4DD00",
". c #E5DC0C",
"X c #E5DC14",
"o c #DFE006",
"O c #EAED0B",
"+ c #F4EA06",
"@ c #FCEE02",
"# c #F5EC09",
"$ c #FDED0A",
"% c #ECF900",
"& c #EEF509",
"* c #EBF808",
"= c #F5F302",
"- c #FBF201",
"; c #F4FA03",
": c #FCF901",
"> c #F5F30B",
", c #FBF20B",
"< c #F7E413",
"1 c #F2EC11",
"2 c #F7E61A",
"3 c #F4E818",
"4 c #FFEF18",
"5 c #F6F310",
"6 c #FAF515",
"7 c #F3F71E",
"8 c #FCF51A",
"9 c #E3DB20",
"0 c #F6E420",
"q c #F9EF35",
"w c #F8F131",
"e c #ECE243",
"r c #EAE846",
"t c #EEE44B",
"y c #F3E54D",
"u c #F2ED49",
"i c #EFF749",
"p c #F3F742",
"a c #F5F54B",
"s c #FAF44D",
"d c #EDE552",
"f c #EAEA56",
"g c #F1E553",
"h c #EAF156",
"j c #F9F353",
"k c #FCF954",
"l c #F4F559",
"z c #F8F15B",
"x c #ECEF62",
"c c #F2EF60",
"v c #F5F765",
"b c #FEFB62",
"n c #F9F77C",
"m c #FCF87D",
"M c #E6E682",
"N c #EDEE86",
"B c #FDF785",
"V c #FDFB85",
"C c #F5F48C",
"Z c #FDF78C",
"A c #F8FA8F",
"S c #F4F293",
"D c #FCF593",
"F c #F3F39B",
"G c #FBF59D",
"H c #FAFF9C",
"J c #EFEDA2",
"K c #FCEDAC",
"L c #F5F7B6",
"P c #FEF7BE",
"I c #FEFCBA",
"U c #FFF2C5",
"Y c #FFF8C4",
"T c #FFF8CD",
"R c #FFFAD4",
"E c #F9F9DD",
"W c #FFF6E6",
"Q c #000000",
"! c #000000",
"~ c #000000",
"^ c #000000",
"/ c #000000",
"( c #000000",
") c #000000",
/* pixels */
"/^())))))A:$666:6-8=f))^()/)))",
")^)^/^)^/D:---==--$6c^/)/)^)))",
"))))Qipasw-$--,-,-@-1kaalQ^^))",
"^^))Q&--=-@$---@-----:+=:!))))",
")^~ER1-$$,---:#----6,--,,GHR/^",
")^V;8@$@----,:,---=,--@-@,*C^)",
"()V=$-:-,-----==$-#>-----@=D^)",
"^^B--,=-----4$-----:-@-@;$@Z^^",
"^)B;-,-,------=----=---@@=;C)/",
"SZs,---=-------------@---,-wbf",
"1-----,#-------@-@-------$@@-O",
"2--$--------------------=--@-X",
"<--:-------------=@-----;---,9",
"+,,-,@--------=@--------$--$-.",
"#-=---@--=--------------@-@@:O",
"3--@-@==-@@---------@---==-@:.",
"1-,->@----@--------@---=@==@-.",
"2-----,,--=-----@=------$>,--.",
"0--$---=-----@-----------,-@-X",
"O;-@,-,=---@-----------@---=:o",
"FGj------------------------zGJ",
")/Z;,$@-=-------------@-$-=D))",
"^)n=---:----------@----=--=D^)",
")^V,--#=@-------@=-------@-Z^)",
")/G>#-,>-,----,--$@$,=,:-,OF))",
"~)~!K--------,--==--$@-@6UWQ)/",
"))^(L%@-;=$,@@@@=:--=;:#7!/~)^",
")^))!IRIPj-----6@---uUTYI/(())",
"^^//)))()v-:-=;:@--;x/))^^^^))",
")^)))^)))NegytdtyygrM~~^))/)))"
};
