/* XPM */
static char *pacman21639223856[] = {
/* columns rows colors chars-per-pixel */
"30 30 115 2 ",
"   c #DBDE11",
".  c #E4DB00",
"X  c #E4DB12",
"o  c #E8DC14",
"O  c #E5DC1A",
"+  c #E9DB1F",
"@  c #E3E70E",
"#  c #EDEB0C",
"$  c #F3EE02",
"%  c #FCEE03",
"&  c #F4E70D",
"*  c #F4EB0C",
"=  c #FCEE0B",
"-  c #EEF109",
";  c #F5F302",
":  c #FBF302",
">  c #F4F901",
",  c #FDF900",
"<  c #F5F30B",
"1  c #FCF10A",
"2  c #FBFA0C",
"3  c #EAE71E",
"4  c #F3E712",
"5  c #F3EC13",
"6  c #FBEF12",
"7  c #EDF31F",
"8  c #F7F214",
"9  c #FFF311",
"0  c #F8FC11",
"q  c #F6F21B",
"w  c #FDF41E",
"e  c #D4D62D",
"r  c #D4CE3A",
"t  c #DDD431",
"y  c #EAD820",
"u  c #DCE62F",
"i  c #EEEB2E",
"p  c #F4EB2E",
"a  c #E7F420",
"s  c #EDFF21",
"d  c #F5F120",
"f  c #FFF520",
"g  c #F4FB22",
"h  c #FEF629",
"j  c #F6F92E",
"k  c #EFED35",
"l  c #EDEC3A",
"z  c #FBF235",
"x  c #FFF837",
"c  c #F1FA3B",
"v  c #D8D343",
"b  c #DDD654",
"n  c #F1EC48",
"m  c #FFF555",
"M  c #FBF95B",
"N  c #D8DF75",
"B  c #FDF565",
"V  c #F9FA61",
"C  c #FFF46B",
"Z  c #F4EA77",
"A  c #FEF775",
"S  c #FDF77D",
"D  c #DED592",
"F  c #D6D69A",
"G  c #E7EC8E",
"H  c #F5E583",
"J  c #FBE985",
"K  c #F5F386",
"L  c #FAF482",
"P  c #F6F78C",
"I  c #FFF788",
"U  c #F2F88C",
"Y  c #FBFB8A",
"T  c #F6F795",
"R  c #FBF494",
"E  c #F6F993",
"W  c #FCFC93",
"Q  c #F5F198",
"!  c #FBF69B",
"~  c #FBFC9B",
"^  c #F7F5A0",
"/  c #FDF5A4",
"(  c #FFF0AE",
")  c #FFF8AB",
"_  c #EDEBB8",
"`  c #F8E9B2",
"'  c #F8F5B2",
"]  c #F7F8B2",
"[  c #FAFBB7",
"{  c #F1F1BE",
"}  c #FEF3BB",
"|  c #FBFBBB",
" . c #EADFCB",
".. c #EEEFC5",
"X. c #F5E7C4",
"o. c #F3EACD",
"O. c #FAF8C5",
"+. c #FCF3C8",
"@. c #FDFBCC",
"#. c #F7ECD8",
"$. c #FCFDD1",
"%. c #F6F5D9",
"&. c #FFFCDE",
"*. c #FFF6E4",
"=. c #FEFBE5",
"-. c #FDF3EC",
";. c #F7F8E8",
":. c #000000",
">. c #000000",
",. c #000000",
"<. c #000000",
"1. c #000000",
"2. c #000000",
"3. c #000000",
"4. c #000000",
/* pixels */
"4.1.4.4.4.4.:.3.4.4.4.4.4.4.4.1.4.4.<.4.1.4.4.3.4.3.4.4.4.4.",
"3.4.4.<.3.%.-.,.#.4.4.4.1.1.4.4.4.4.1.4.2.-.-.=.*.2.4.=.4.4.",
"4.4.4.4.*.7 4 * d | 1.4.1.4.4.4.4.4.4.4._ 3 4 * @ { 3.1.4.4.",
"4.1.1.1.:.0 : : $ O.3.4.1.1.4.4.4.4.4.4.{ ; : 1 ; ` >.4.4.4.",
"4.4.| B B $ 1 : = @.3.4.4.4.4.4.4.4.1.<...$ % ; , + e G 1.4.",
"1.4.P : : % 1 , ; +.4.4.4.4.4.1.4.4.4.4.o.< : ; : : , Y 4.2.",
"4.4.P ; : ; ; ; : J ^ $.1.4.4.4.4.4.&./ H ; : = ; 1 % L 1.4.",
"4.4.P ; % : 1 1 : % > Y 4.4.4.4.4.1.E > ; : 1 : 1 : : W 4.1.",
":.1.L , 1 1 : % > = : ~ 4.4.4.4.4.4.! 8 1 : ; : = ; > Z X. .",
"u g 5 : : 1 : : ; = : W 1.1.4.4.:.4.! : : ; 1 : = : ; ; # @ ",
"O ; : = % ; : $ : 1 : ~ 4.4.4.4.<.4./ : : 1 ; 1 : 9 1 : , 4 ",
"+ : % : : ; : : : 1 : ~ 4.:.4.4.<.4./ $ : : : : ; ; ; : : * ",
". , : : 1 1 ; : % 1 1 ~ 4.4.4.1.4.4./ ; : = : ; 1 : , : , 4 ",
"+ , 1 ; 1 ; : : 1 : : M ) } 4.:.@./ C $ : % : ; % = % % : & ",
"O , ; % % ; : : : ; : : < k ;.2.V 2 1 ; ; : : : : : : : : & ",
"X 1 % : = : : % : ; : = ; k 1.4.B : : ; ; = : $ ; ; : : ; # ",
"o , ; ; 1 : : % : : = : : p 4.4.B > : : : : : % : : : = , # ",
"+ : : % = : : : : % : ; : p 2.3.C > % : % : : ; : : % % : & ",
"o , , : : : ; = : : 1 ; = l <.4.C < 1 : % : : : 1 1 1 : , & ",
"  < ; ; : : 1 : 1 : : ; 1 n -.4.m < 1 : % : : : $ % : $ 8 @ ",
";.&.A < : % : : < % : : : 8 S I z ; : : : ; : : : : ; t D F ",
"<.4.K ; = % : : : : : : % ; 1 : 8 : : : ; : % % : : , b >.4.",
"1.4.S > : : 1 : ; : : ; 1 : 1 % : ; : : 1 : : : ; : ; v 4.4.",
"4.4.L 1 % : 1 ; : = : : % : ; : ; : : % 1 : $ : : 1 1 r 4.<.",
"4.4.^ j x < ; ; ; 1 % = : % 1 : : % % 1 ; 1 : : : z c N 2.4.",
"1.4.4.4.*.8 : % : 1 : ; > < < ; < ; : : ; , ; : $ ( ,.4.4.4.",
"1.4.<.4.=.s q w w w : : : : : : : : % % ; h w d 7 ' 4.4.4.1.",
"4.4.4.4.4.:.1.=.:.I < : = % : % 1 : : ; M -.1.:.:.4.1.4.1.:.",
"4.4.2.4.1.4.4.3.4.W < : % % : : 1 : : ; M 4.4.4.4.4.3.4.4.4.",
"4.4.4.1.4.1.4.4.4.@.U T E T E ! E ! R Q ' 4.4.<.4.2.4.4.4.4."
};
