/* XPM */
static char *pacman31639223856[] = {
/* columns rows colors chars-per-pixel */
"30 30 125 2 ",
"   c #E6DC0E",
".  c #E5DB16",
"X  c #E2DB19",
"o  c #E8DE1D",
"O  c #DCE405",
"+  c #EDED03",
"@  c #E5E00B",
"#  c #E3E808",
"$  c #ECED0B",
"%  c #F4EC01",
"&  c #FCEE02",
"*  c #F4EC0B",
"=  c #FDEE0A",
"-  c #EDF300",
";  c #ECF60D",
":  c #F5F401",
">  c #FBF202",
",  c #F4FA02",
"<  c #FBF801",
"1  c #F5F20B",
"2  c #FCF20A",
"3  c #F4F909",
"4  c #FBF809",
"5  c #E5E410",
"6  c #EFE813",
"7  c #ECEA1C",
"8  c #F2E614",
"9  c #F8E713",
"0  c #F3EB14",
"q  c #FFED14",
"w  c #F3E61C",
"e  c #EFF51F",
"r  c #F6F413",
"t  c #F9F312",
"y  c #F6F018",
"u  c #FCF31B",
"i  c #DAD32B",
"p  c #DEDC29",
"a  c #DAD53D",
"s  c #E6DE23",
"d  c #E9DD25",
"f  c #E4E42E",
"g  c #F1EB22",
"h  c #F5ED2A",
"j  c #EDF724",
"k  c #FBF424",
"l  c #F9F62D",
"z  c #F5EB34",
"x  c #FBE836",
"c  c #F4EA3B",
"v  c #EAF93C",
"b  c #FDF433",
"n  c #F0F930",
"m  c #FBF53B",
"M  c #DAD74C",
"N  c #D7D250",
"B  c #FFF342",
"V  c #F6F859",
"C  c #F6ED6C",
"Z  c #FDF565",
"A  c #FDFA63",
"S  c #F9FA6E",
"D  c #FCF570",
"F  c #F8F278",
"G  c #FFF87F",
"H  c #D2D294",
"J  c #E4DF83",
"K  c #E0D59F",
"L  c #EAEA8A",
"P  c #F6E687",
"I  c #F4EF89",
"U  c #FEEC88",
"Y  c #F6F684",
"T  c #FBF884",
"R  c #F7F489",
"E  c #FCF48A",
"W  c #F7FA8E",
"Q  c #F9FA8C",
"!  c #F5F796",
"~  c #FDF392",
"^  c #FDF993",
"/  c #F6F098",
"(  c #FAF69A",
")  c #F5F99A",
"_  c #FBFB9B",
"`  c #F7F2A2",
"'  c #FEF6A4",
"]  c #F5F8A1",
"[  c #FCFAA4",
"{  c #F4F7AC",
"}  c #F3F9AF",
"|  c #EBE7BA",
" . c #F2E3B8",
".. c #FAEFB9",
"X. c #F3F4B5",
"o. c #F3F9B3",
"O. c #F4F4BD",
"+. c #F7F8BC",
"@. c #FFF8BB",
"#. c #F8EFC6",
"$. c #F3F1C0",
"%. c #FDFBC2",
"&. c #F7F1CF",
"*. c #FAFACB",
"=. c #F5E5D8",
"-. c #F7EBDD",
";. c #FCF1D5",
":. c #FDFBD4",
">. c #F7F3D8",
",. c #FFF7D8",
"<. c #FEFADC",
"1. c #FFEFE7",
"2. c #FBEEE8",
"3. c #FDF5E2",
"4. c #FFFDE4",
"5. c #FDF5EA",
"6. c #FDFEEB",
"7. c #FFEFF0",
"8. c #000000",
"9. c #000000",
"0. c #000000",
"q. c #000000",
"w. c #000000",
"e. c #000000",
"r. c #000000",
/* pixels */
"e.r.r.r.e.q.q.r.| O w 9 % 0 0 6 $ 8 * # H r.r.e.r.q.r.r.r.r.",
"r.q.r.r.q.r.r.r.=.$ < 2 2 : > > > > > 1 H w.w.9.9.r.r.r.6.r.",
"r.r.6.9.L Q T Q C % > > : > > > > > > % i M N a J r.r.r.r.r.",
"r.r.r.8.p > > > < : 2 > > 2 & > > > q < 4 < 4 < m r.q.q.r.r.",
"r.q.X. .d 2 & & > > > > 1 2 > > : > * > > > = % B ..o.q.r.r.",
"r.&.; t % 2 & 1 = 2 > > 2 > > > > > > > > & > > % + j 4.r.r.",
"q.1.0 > > > : 1 > > & : & > > 1 > > > > & > > > r > y w.r.r.",
"e.5.0 & 4 < 2 > 2 > : 2 & 2 > 2 = > : : & 2 % > : > u 6.e.q.",
"r.-.g % % : > > > 1 > > & > > & : > > > = > > > : : k 5.r.r.",
"r.w.X.O.O.#.P * q > 2 > > 4 1 : > > > > > 2 2 > > > 2 V V X.",
"q.r.e.e.e.r.` , = > > > > 2 > > 1 > > & > 2 : % & > = : > / ",
"r.r.r.w.r.r.:.Q { _ ] ) [ Z > > = > = > > > > > > > = & > ' ",
"r.r.r.6.q.r.r.r.0.r.r.r.r.' 1 : > : 1 1 > > > > = , > > > ( ",
"r.r.r.q.r.r.r.r.r.r.r.e.q.%.A Z Z A S D b > = > > : > > & ! ",
"r.r.r.e.r.r.r.r.r.q.q.r.r.r.r.r.r.r.r.9.G 2 2 > & : 2 & > ] ",
"q.r.r.q.r.6.r.r.r.r.r.r.r.q.r.9.0.e.e.r.T , % > & : > > & ] ",
"r.r.r.e.r.r.r.r.q.r.r.6.r.@.7 x c c z h r 1 > : > : = > & ( ",
"r.r.r.q.r.r.r.q.r.r.r.r.r.[ ; 4 > : : : > > > & & : & 2 & ^ ",
"q.r.r.r.q.r.<.W _ ^ _ Q ^ A 4 > > > = = > & > > & > > 2 : ( ",
"0.r.q.r.q.r.` - 4 : < 2 t 2 & & 2 2 = > > > > & > = & , : ! ",
"q.r.O.%.*.;.U > > & > = % & & > > > > > > > : > > 1 2 T E *.",
"r.2.7 > % * > > 2 > > 2 > > > > : & : > > > > : > : k q.r.r.",
"r.2.y > & > < > > > : > > > 2 * > > > > > > > > > > t 4.r.r.",
"e.3.* > : 4 t > & 2 & > > > > > 2 > = > > > & & = > k q.r.r.",
"r.>.j 4 2 * > > : 2 > : r & > : & & > > : 1 > : & t n 6.r.r.",
"r.r.<.3.A 2 > > 4 q q > 2 > & : > 1 q > : : = & b ,.4.r.6.r.",
"q.r.r.r.A : 2 : : > > > > & = > : : 2 > 4 : > > v q.r.e.q.r.",
"r.r.e.r.+.I E ~ E 2 > > > > = > > > & > F Y E Y X.q.4.r.r.r.",
"q.r.r.r.q.r.r.q.q.l > 2 > < > < > 2 > : 4.r.r.r.r.r.r.r.r.r.",
"r.r.r.r.q.r.r.r.q.f   o X . . @   g   @ 5.r.q.r.6.r.r.r.r.r."
};
