/* XPM */
static char *pacman11639223855[] = {
/* columns rows colors chars-per-pixel */
"30 30 118 2 ",
"   c #E5DA06",
".  c #E0D90D",
"X  c #E8DF08",
"o  c #E5DB16",
"O  c #E4DC19",
"+  c #E1E806",
"@  c #E9ED03",
"#  c #E9E009",
"$  c #ECED0C",
"%  c #F5E700",
"&  c #F5ED02",
"*  c #FCEE02",
"=  c #F4EC0C",
"-  c #FCEE0A",
";  c #F6F302",
":  c #FBF302",
">  c #FCF901",
",  c #F5F30B",
"<  c #FCF20A",
"1  c #FEF909",
"2  c #E1E214",
"3  c #E5EC13",
"4  c #E9EC17",
"5  c #ECEF1A",
"6  c #F3E613",
"7  c #F3EB14",
"8  c #FBEC13",
"9  c #F6EE1F",
"0  c #E6F71F",
"q  c #F6F211",
"w  c #FBF312",
"e  c #F4FA10",
"r  c #FBF817",
"t  c #FBF31B",
"y  c #DCD429",
"u  c #D8D828",
"i  c #E4DA20",
"p  c #ECED24",
"a  c #E5E629",
"s  c #EAED2A",
"d  c #F8F721",
"f  c #F5FC20",
"g  c #FAF52A",
"h  c #EEED31",
"j  c #F0EC33",
"k  c #EEF035",
"l  c #F0F134",
"z  c #FBF336",
"x  c #F7F73F",
"c  c #F4FB3B",
"v  c #D4CC45",
"b  c #D4D742",
"n  c #DCD549",
"m  c #F8FA57",
"M  c #FDF65D",
"N  c #F4F85B",
"B  c #FFF95F",
"V  c #DBE374",
"C  c #F5EF63",
"Z  c #FCF962",
"A  c #FDF76F",
"S  c #F8EC76",
"D  c #FEEA79",
"F  c #FFF374",
"G  c #FAF871",
"H  c #FDF67D",
"J  c #D7D797",
"K  c #E5DC9B",
"L  c #F4EE8E",
"P  c #F7F584",
"I  c #F9F287",
"U  c #FEF883",
"Y  c #F3F788",
"T  c #FFF68A",
"R  c #FBFB8C",
"E  c #EBEA98",
"W  c #FAE896",
"Q  c #FFE999",
"!  c #F9F593",
"~  c #F4F995",
"^  c #FAFB96",
"/  c #FCF69C",
"(  c #F5FB9C",
")  c #FEFB9D",
"_  c #F3F5A2",
"`  c #FCF3A3",
"'  c #FEF4AA",
"]  c #F4FFAA",
"[  c #FEF9A8",
"{  c #E5E7BF",
"}  c #EEEABD",
"|  c #F7E6BA",
" . c #F6EFBA",
".. c #F4F2B7",
"X. c #F6FCB4",
"o. c #FBF7BA",
"O. c #FBFBBF",
"+. c #F2EFC4",
"@. c #FDF7C5",
"#. c #FCFAC7",
"$. c #FBF4CB",
"%. c #F6F5D6",
"&. c #FBF5D5",
"*. c #FFFDD6",
"=. c #FCF6D9",
"-. c #F9F9DF",
";. c #FCF3E2",
":. c #FCF9E1",
">. c #FEF4EA",
",. c #FDFDEB",
"<. c #000000",
"1. c #000000",
"2. c #000000",
"3. c #000000",
"4. c #000000",
"5. c #000000",
"6. c #000000",
"7. c #000000",
/* pixels */
"7.7.6.7.7.7.7.,.6.;.2   o O o o o # # . a 2.4.6.4.6.7.7.7.7.",
"7.4.7.4.7.5.7.7.7.*.r > > > > > > < 1 ; r 3.7.7.4.7.7.7.7.4.",
"6.7.7.4.4.` H Y L F = * : = : : < - - ; q H P P I o.7.7.7.7.",
"7.7.7.6.4.x ; : ; > : : > - : * : * : , , ; ; ; = G 7.4.4.7.",
"7.7.7.,.:.z : * ; : - - > & > - > * < : < : - < > M ,.=.7.7.",
",.7.,.r r 9 w * 8 < : ; : : : : : = * : : * * : * ; e 0 %.7.",
"7.6.,.w * : > * > : : ; - * : ; : : : : < - > : 1 < : 4 >.7.",
"7.7.,.t * ; ; * : = 1 * : : : : : - : * : = > ; ; - : 7 >.7.",
"7.7.7.t : ; : * : ; : ; ; ; , : * w : : * : ; ; * * : $ >.7.",
"%.U R , : : & > * * * : : - : : : : : : : - , D $.@.$...7.4.",
"/ : r ; * * 8 , : : : : : * * * : : : > : : > Q 6.7.7.6.6.7.",
"! * : : : * * ; ; ; ; w < : 1 < G ` ^ ) [ / R :.7.4.4.4.7.7.",
"( - < , : * : ; - : : : - - : > X.7.4.7.7.7.7.6.7.7.7.7.7.7.",
"( * > ; = - : : * 9 k h h j h s @.4.4.7.4.7.7.4.3.7.7.7.7.7.",
"_ * : ; * : : : < U >.7.2.4.7.4.,.7.6.7.4.7.7.6.6.7.6.7.7.7.",
"! * < : > , - : ; U 7.6.7.7.7.7.7.7.4.7.7.7.7.7.7.7.7.4.7.7.",
"~ < > : & < * < ; g M F G Z Z Z #.7.7.4.,.7.7.7.7.7.6.7.7.7.",
"/ * * * : < * ; * < < , ; ; : < ] 7.6.7.7.7.3.7.7.7.4.7.7.7.",
"/ - 8 < > ; * ; : - : : : : > * Z ' ` ) [ / ^ -.4.7.7.4.7.7.",
"! ; ; * : ; : : : : : : < < : > & : : : : : ; W 6.7.6.6.7.7.",
"X.N m : * ; : 1 - ; ; : : : & : - > : : < - ; S +. . .} 7.7.",
"4.5.7.g : ; * * < : : : : : : : * ; : < : : ; , % * & p &.7.",
"6.7.4.t : , : : : * : - - - * < - 8 : < : * : : * - * 7 ;.7.",
"4.7.,.w : : : : : ; : > : ; ; , > : ; , * : > w ; : 1 5 =.7.",
"6.7.>.p ; : ; = : ; ; : : * 8 : : - * : : ; : : ; < < 3 =.7.",
"7.7.7...` g : * : - ; : : : 1 : , : : < : : : - > i | ..>.7.",
",.7.4.7.7.c > > > : > 8 = * : : * * * - ; , ; , > u <.7.4.7.",
"7.6.7.7.7.V b v n y & > : - < : > 1 : : ; C U I U E 7.7.7.7.",
"7.7.7.7.7.1.5.5.5.K @ ; ; : > : : w - : 3 | 7.7.7.6.7.5.7.4.",
"7.7.7.7.7.7.7.3.7.J + , 7 7 6 6 % = = 7 . +.3.6.6.4.7.7.7.3."
};
